<?xml version="1.0" encoding="UTF-8"?><svg id="LINE" xmlns="http://www.w3.org/2000/svg" viewBox="0 0 240 193.2"><defs><style>.cls-1{stroke:#ef4a3b;}</style></defs><path class="cls-1" d="M381.1,59.28m-136.38-7.86,1.67-.73-68.08,25.44l.74-.32-.23-.22c-9.46-9.22-21.48-18.15-34.76-25.82-27.93-16.16-51.62-22.82-72.42-20.38-18.07,1.86-31.54,9.1-38.07,20.53-1.74,3.02-3.03,6.33-3.83,9.92-1.06,4.74-3.5,21.38,9.57,36.64,9.98,11.95,25.29,18,43.13,17.06l1.15-.06-.32-1.1c-7.17-24.32-12.42-48.63-15.61-72.26h0c-.61,.1-1.2,.21-1.79,.34,3.16,23.33,8.31,47.32,15.33,71.33-16.76,.6-31.1-5.22-40.49-16.47-9.96-11.62-11.28-25.73-9.19-35.06,3.58-16.38,18.28-26.79,40.34-29.04,20.12-2.36,44.11,4.42,71.3,20.15,13,7.5,24.77,16.22,34.07,25.23,.38-.15,.75-.3,1.09-.44ZM96.83,40.91c-.65-.14-1.28-.28-1.9-.4,2.15,14.33,2.88,18.48,7.63,39.89,6.53,27.17,10.98,39.19,13.64,46.37,.34,.92,.65,1.76,.94,2.55l1.78-.43c-.31-.85-.64-1.75-1.01-2.76-2.64-7.14-7.07-19.09-13.58-46.15-4.66-21.02-5.43-25.3-7.5-39.08Zm23.42,92.81l-1.12,.27,.52,1.03c8.1,15.93,21.01,26.17,36.35,28.83,14.11,2.45,28.54-1.83,37.66-11.18,8.63-8.84,11.85-21.49,9.05-35.59l-.03-.16c-.57,.25-1.14,.49-1.71,.73,3.34,17.17-2.83,27.83-8.61,33.75-8.71,8.92-22.52,13.01-36.05,10.66-14.43-2.5-26.64-12.02-34.51-26.84,71.41-17.42,115.03-43.85,131.51-53.83l.07-.04c-.39-.47-.77-.95-1.15-1.43-16.6,10.06-60.37,36.51-131.98,53.81Zm61.23-49.99c-10.19,4.14-29.17,11.84-58.05,19.5h-.03c.18,.61,.35,1.18,.53,1.75,28.98-7.68,48.02-15.41,58.26-19.57l2.18-.93c11.04-4.7,27.72-11.8,53.78-27.57-.25-.56-.49-1.12-.73-1.68l-.05,.03c-26.04,15.77-42.69,22.86-53.7,27.55l-2.17,.93Zm-30.39,108.5c13.26,2.09,46.58,3.65,69.54-27.04,7.44-10.27,11.89-24.52,11.91-38.11,0-7.32-1.08-14.92-3.25-22.6l-.03-.12c-.55,.28-1.1,.57-1.65,.85,2.08,7.44,3.13,14.79,3.12,21.87-.02,13.23-4.34,27.08-11.55,37.04-22.36,29.88-54.86,28.36-67.78,26.32-26.19-4.55-47.69-22.8-58.99-50.07l-.27-.65-.69,.09c-28.91,3.84-55.46-5.65-72.84-26.04C5.06,97.56-.69,76.86,2.83,56.97c3.26-18.44,14.25-33.93,30.94-43.6C45.41,6.46,67.63-.52,92,2.57c26.26,2.44,78.62,23.09,112.95,61.36,.55-.28,1.11-.57,1.68-.86l-.15-.17C171.82,24.15,118.77,3.23,92.2,.76c-24.79-3.14-47.47,3.98-59.34,11.04C15.78,21.71,4.44,37.52,1.04,56.65c-3.61,20.42,2.28,41.66,16.16,58.29,17.66,20.71,44.52,30.44,73.78,26.76,11.61,27.5,33.48,45.9,60.1,50.52Z"/></svg>