<svg width="96" height="96" viewBox="0 0 96 96" fill="none" xmlns="http://www.w3.org/2000/svg">
<path d="M48.3704 0.936768C22.1368 0.936768 0.870361 22.2032 0.870361 48.4368C0.870361 74.6703 22.1368 95.9368 48.3704 95.9368C74.6039 95.9368 95.8704 74.6703 95.8704 48.4368C95.8704 22.2032 74.6039 0.936768 48.3704 0.936768ZM48.0283 22.6805C54.4428 22.7111 60.3061 26.8016 62.7967 32.5087C63.6487 34.4965 64.1013 36.5386 64.1013 38.7536V44.4012H71.8826V74.193H24.8581V44.4011H32.0133C31.9484 40.4106 31.8663 35.8455 33.2657 32.5086C35.9866 26.4991 41.6136 22.65 48.0283 22.6805ZM47.6803 32.1666C44.1273 32.2413 41.784 34.9432 41.4412 38.7534V44.4011H54.6731V38.6955C54.51 35.0823 51.7753 32.2661 48.0281 32.1666C47.9122 32.1639 47.7963 32.1639 47.6803 32.1666Z" fill="#970048"/>
</svg>
