<svg version="1.1" id="Layer_1" xmlns="http://www.w3.org/2000/svg" xmlns:xlink="http://www.w3.org/1999/xlink" x="0px" y="0px"
	 viewBox="0 0 9457.1 3930" style="enable-background:new 0 0 9457.1 3930;" xml:space="preserve">
<path style="fill:#C4FF36;" d="M9003,5591.3c379.4,530.2,594.6,1266.8,343.1,2028c-347.5,1019-1417.3,1565.2-2348.7,988.8
	c-339.1-204.5-737.9-649.2-952-1197.1c-256.4-599.5-486.1-2083.4-80.7-3409.2c280.1,196,433.9,323.2,608.2,463.9
	c-77.8,329.6-121,718.5-121,1126c-1,1159.6,290.4,1675.7,450.5,1906.6c64.6,93.1,495.3,761.7,1135.1,546.5
	c235-79.2,519.1-298.9,646-686.5c130.5-382.6,69.7-800.8-164.2-1187.6c-430.1,485.9-876.8,921.6-1344.3,1310
	c-160.4-197.9-271.8-415.9-347.5-670.5c269.5-230.7,348.4-301.7,745.3-692.8c571.3-583.2,739.9-830.1,857.7-979.2
	c-358.3,295.2-597.8,203.1-597.8,203.1c-514.9-556.6-903.7-882.6-1127.2-1069.8c-238.3-191.9-592.2-488.2-1290.6-901.2
	c136.5-200,251.2-429.2,337.1-666.6c491.1,290.1,1560.5,945.2,2767.4,2308.6c234-387,294.8-805.3,164.2-1187.9
	c-214.9-629.6-910.8-1022.2-1528.9-440.5c-194.4-155.7-391.8-303.5-591.3-442.3c134.7-148.5,279.6-271.2,433.9-366.7
	c294.3-182.1,646.8-260.2,941.4-227.2C8956.6,2478,9295.3,3420.2,9346.3,3562.6c227.6,667.1,100.8,1406.6-343,2028.4L9003,5591.3z
	 M463.2,2108.9c-89.3,118.7-678.9,905-275.2,1918.2C308.8,4317.9,547.9,4607,841.7,4790c154,95.9,325.3,169.4,512.3,220.7
	c12-255.2,32.4-512.9,60.7-771.7c-777.5-284.7-809.3-1128.9-409.5-1643.7c242.9-312.8,610.2-465.4,1039-441.1
	c-494.8,1805.3-487.8,3128.5-476.1,3730.8c234.2-38.7,476.2-46.6,705.6-19.5c-16.7-856.7,45.1-1334.4,80.6-1652.3
	c39-301.7,107.2-826.7,298.1-1584.4c0,0-45.6-269-462.5-455c179,35.2,462.1,68.8,1217.7,308.9c513.6,174,610.2,212,930.7,347.5
	c167.1-197.9,287.1-410.5,366.4-658.8c-546.6-241.1-1121-439.1-1727.4-596.5c194.6-411.2,501.1-676.9,874.6-746.7
	c375.7-75.5,694.7,78.9,876,258.2c493.3,488.1,170.1,1223.3,127.4,1330c-106,264.5-376.2,793.9-1310.7,1372.7
	c-328.2,203.7-663.1,358.1-967.5,450.4c-26.1,232.6-51.7,439.4-69.6,798.2c1270.6-285.6,2351.2-1241.5,2705.9-1779.9
	c334.4-473.3,493.1-1067,488.3-1484.9C5700.4,617.6,4725.5-105.4,3731,80.6c-738.9,146.5-1224.5,715.1-1462,1333.4
	c-722.9-102.4-1382,149.4-1805.5,694.8H463.2z M3733.4,11106.1c140.2,23.8,1068.5,179.6,1682.8-702.8
	c173.8-257.9,287.2-625.1,287.6-990.1c0.2-191.4-26.2-387.6-78.4-587.3c-211.6,116.5-429.4,226.3-651.9,329.4
	c159.4,866.2-504.8,1317.9-1119.3,1203.2c-373.4-69.7-680.1-335.4-874.8-746.8c1701.7-441.8,2764.1-1110,3243.4-1422.2
	c-148.3-198.7-275.6-420.1-368.5-647.1c-681.8,443.8-1097.5,625.1-1371.2,751c-262.5,114.6-719.6,313.5-1425.5,514.6
	c0,0-194,176.9-135.3,658.2c-61.1-184.2-175.7-464.7-359.9-1288.1c-116.6-565.2-134.3-674.1-185.4-1040.2
	c-243-56.8-474.2-62.2-713.9-11.7c79.2,629.4,206.8,1263.1,383.2,1906.5c-428.5,24.5-795.8-128-1038.8-440.9
	c-248.6-312-283.8-686.2-229.9-944.7c146.4-703.4,900.4-770.1,1007.8-783.6c266.2-33.6,827.5-46.8,1761.1,533.9
	c328.2,203.7,619.9,438.3,846.5,675.6c200.5-92,379.8-171.5,677.8-334.4C4205.5,6698.1,2895.1,6170,2284,6108.8
	c-548.5-74.7-1106.2,74.3-1440.5,287.8c-930,579.1-1024.9,1848.2-377.8,2681.1c487.5,614.7,1188.4,782.7,1805.3,694.5
	c279,724.2,811.3,1212,1462.5,1333.6L3733.4,11106.1z"/>
</svg>
