<svg xmlns="http://www.w3.org/2000/svg" id="Artwork" viewBox="0 0 228.05 121.7"><defs><style>.cls-1{fill:#fff;}</style></defs><title>SU_London-Logo-Concepts-Final</title><path class="cls-1" d="M3.5,96.58V3.5H114.69V118.2H25.21ZM0,0V98L23.76,121.7h94.43V0Z"></path><path class="cls-1" d="M18.85,75.51c0-2.9-3.87-2-3.87-3.6,0-.75.67-1,1.34-1a1.75,1.75,0,0,1,1.43.64l1.06-1.11a3.36,3.36,0,0,0-2.34-.84c-1.51,0-3,.78-3,2.46,0,2.91,3.87,1.89,3.87,3.67,0,.75-.76,1.12-1.42,1.12A1.94,1.94,0,0,1,14.29,76L13.2,77a3.39,3.39,0,0,0,2.67,1.1c1.6,0,3-.85,3-2.6"></path><polygon class="cls-1" points="22.03 77.91 23.48 77.91 23.48 71.07 25.98 71.07 25.98 69.75 19.53 69.75 19.53 71.07 22.03 71.07 22.03 77.91"></polygon><path class="cls-1" d="M27.86,74.8l1.28-3.32,1.25,3.32Zm5.46,3.11-3.51-8.16H28.55L25,77.91h1.62L27.37,76H30.9l.76,1.87Z"></path><polygon class="cls-1" points="35.68 74.52 39.27 74.52 39.27 73.21 35.68 73.21 35.68 71.07 39.49 71.07 39.49 69.75 34.23 69.75 34.23 77.91 35.68 77.91 35.68 74.52"></polygon><polygon class="cls-1" points="42.3 74.52 45.89 74.52 45.89 73.21 42.3 73.21 42.3 71.07 46.1 71.07 46.1 69.75 40.84 69.75 40.84 77.91 42.3 77.91 42.3 74.52"></polygon><path class="cls-1" d="M51.34,76.8a2.8,2.8,0,0,1-2.8-3,2.8,2.8,0,1,1,5.6,0,2.8,2.8,0,0,1-2.8,3m0-7.25a4.28,4.28,0,1,0,0,8.56,4.15,4.15,0,0,0,4.34-4.29,4,4,0,0,0-4.34-4.27"></path><path class="cls-1" d="M58.5,73.21V71h1.25c.75,0,1.65.11,1.65,1.08s-.95,1.13-1.77,1.13Zm4.42-1.12c0-1.83-1.47-2.34-3-2.34H57.05v8.16H58.5V74.45h1.06l1.89,3.46H63.2L61,74.3a2.08,2.08,0,0,0,1.89-2.21"></path><path class="cls-1" d="M65.76,76.59V71.07h1.32c1.77,0,3.06.78,3.06,2.76s-1.48,2.76-3.3,2.76Zm5.9-2.76a3.89,3.89,0,0,0-4.14-4.08H64.3v8.16h3a4.11,4.11,0,0,0,4.32-4.08"></path><path class="cls-1" d="M74.28,71.91c0-.75.67-1,1.33-1A1.73,1.73,0,0,1,77,71.5l1.06-1.11a3.33,3.33,0,0,0-2.34-.84c-1.5,0-3,.78-3,2.46,0,2.91,3.87,1.89,3.87,3.67,0,.75-.76,1.12-1.43,1.12A1.93,1.93,0,0,1,73.59,76L72.49,77a3.4,3.4,0,0,0,2.68,1.1c1.59,0,3-.85,3-2.6,0-2.9-3.87-2-3.87-3.6"></path><polygon class="cls-1" points="84.92 73 81.11 73 81.11 69.75 79.66 69.75 79.66 77.91 81.11 77.91 81.11 74.31 84.92 74.31 84.92 77.91 86.37 77.91 86.37 69.75 84.92 69.75 84.92 73"></polygon><rect class="cls-1" x="88.16" y="69.75" width="1.45" height="8.15"></rect><path class="cls-1" d="M92.85,73.21V71H94.1c.75,0,1.65.11,1.65,1.08s-1,1.13-1.78,1.13Zm4.42-1.12c0-1.83-1.48-2.34-3-2.34H91.39v8.16h1.46V74.45H93.9l1.89,3.46h1.75L95.38,74.3a2.08,2.08,0,0,0,1.89-2.21"></path><polygon class="cls-1" points="100.1 76.59 100.1 74.38 103.84 74.38 103.84 73.07 100.1 73.07 100.1 71.07 104.05 71.07 104.05 69.75 98.65 69.75 98.65 77.91 104.26 77.91 104.26 76.59 100.1 76.59"></polygon><path class="cls-1" d="M18.87,87.07a2.07,2.07,0,1,1-4.1,0v-5h-1.1v5.16a3.07,3.07,0,0,0,3.15,3.19A3.07,3.07,0,0,0,20,87.24V82.08H18.87Z"></path><polygon class="cls-1" points="27.89 88.78 27.86 88.78 23.37 82.08 21.92 82.08 21.92 90.22 23.03 90.22 23.03 83.53 23.05 83.53 27.59 90.22 28.99 90.22 28.99 82.08 27.89 82.08 27.89 88.78"></polygon><rect class="cls-1" x="31.09" y="82.08" width="1.1" height="8.15"></rect><polygon class="cls-1" points="36.87 88.71 36.84 88.71 34.45 82.08 33.17 82.08 36.32 90.23 37.35 90.23 40.56 82.08 39.35 82.08 36.87 88.71"></polygon><polygon class="cls-1" points="42.65 86.58 46.52 86.58 46.52 85.54 42.65 85.54 42.65 83.11 46.81 83.11 46.81 82.08 41.55 82.08 41.55 90.23 47.01 90.23 47.01 89.19 42.65 89.19 42.65 86.58"></polygon><path class="cls-1" d="M49.68,85.67V83h1.45c.88,0,1.75.21,1.75,1.31s-.87,1.32-1.75,1.32Zm4.38-1.32c0-1-.53-2.28-2.61-2.28H48.58v8.16h1.1v-3.6h1.24L53,90.23h1.38l-2.31-3.72a2.19,2.19,0,0,0,2-2.16"></path><path class="cls-1" d="M56.36,84.15c0-.51.37-1.25,1.59-1.25a1.71,1.71,0,0,1,1.45.72l.9-.82A2.81,2.81,0,0,0,58,81.87a2.47,2.47,0,0,0-2.76,2.28c0,3.17,4,2,4,3.89a1.5,1.5,0,0,1-1.62,1.36,2.06,2.06,0,0,1-1.73-.88l-.91.79a3.15,3.15,0,0,0,2.61,1.12,2.57,2.57,0,0,0,2.83-2.52c0-2.93-4-1.7-4-3.76"></path><rect class="cls-1" x="62.01" y="82.08" width="1.1" height="8.15"></rect><polygon class="cls-1" points="64.29 83.11 66.92 83.11 66.92 90.23 68.02 90.23 68.02 83.11 70.65 83.11 70.65 82.08 64.29 82.08 64.29 83.11"></polygon><polygon class="cls-1" points="74.88 85.66 72.66 82.08 71.24 82.08 74.33 86.75 74.33 90.23 75.43 90.23 75.43 86.75 78.52 82.08 77.17 82.08 74.88 85.66"></polygon><rect class="cls-1" x="80.13" y="81.94" width="24.24" height="8.35"></rect><path class="cls-1" d="M86.75,49.19c.13,2.47,3.21,7.1,5.54,9.43,2.33-2.33,5.41-7,5.55-9.43a23.28,23.28,0,0,0-11.09,0"></path><path class="cls-1" d="M88.84,61.53a7.37,7.37,0,0,0,1.64-1.26l-.12-.11a24.47,24.47,0,0,1-3-3.61,23.38,23.38,0,0,1-3.14-6.5,7.88,7.88,0,0,0-1.67.72c-3.29,1.87-4.54,5.79-2.8,8.77s5.82,3.86,9.11,2"></path><path class="cls-1" d="M102.07,50.73a7.63,7.63,0,0,0-1.66-.73,23.48,23.48,0,0,1-3.13,6.58,24.83,24.83,0,0,1-3,3.66l-.12.11a7.65,7.65,0,0,0,1.63,1.27,6.31,6.31,0,1,0,6.28-10.89"></path><path class="cls-1" d="M104.27,63.66A9.87,9.87,0,0,1,92.8,62.55c-.16-.13-.36-.35-.51-.49-.14.15-.25.28-.4.42a9.44,9.44,0,0,1-11.79.94V65.9h0V67h24.28V65.53s0,.11,0-1.91Z"></path><path class="cls-1" d="M83.72,47.49l0-3H86.3c0,.66,0,1.42,0,2.28a25,25,0,0,1,11.87-.09h0V44.49h2.58v2.88l.19.06a10.13,10.13,0,0,1,1.56.66,7.82,7.82,0,0,1,1.86,1.27v-18l-24.25,0v18.1a7.91,7.91,0,0,1,1.84-1.24,9.35,9.35,0,0,1,1.78-.72"></path><path class="cls-1" d="M142.7,31.61V42.47H147v3.06h-8V31.61Z"></path><path class="cls-1" d="M148,38.57a7.23,7.23,0,0,1,2.16-5.23,7.46,7.46,0,0,1,2.43-1.56,8.89,8.89,0,0,1,6.21,0,7.45,7.45,0,0,1,2.45,1.56,7.33,7.33,0,0,1,0,10.46,7.45,7.45,0,0,1-2.45,1.56,8.89,8.89,0,0,1-6.21,0,7.46,7.46,0,0,1-2.43-1.56A7.23,7.23,0,0,1,148,38.57Zm3.79,0a3.67,3.67,0,0,0,.31,1.53,3.77,3.77,0,0,0,.85,1.22,3.9,3.9,0,0,0,1.25.81,4,4,0,0,0,1.5.28,3.89,3.89,0,0,0,2.76-1.09,3.77,3.77,0,0,0,1.18-2.75,3.71,3.71,0,0,0-.32-1.53,3.65,3.65,0,0,0-.86-1.22,3.89,3.89,0,0,0-2.76-1.09,4,4,0,0,0-1.5.28,3.9,3.9,0,0,0-1.25.81A3.77,3.77,0,0,0,152.1,37,3.7,3.7,0,0,0,151.79,38.57Z"></path><path class="cls-1" d="M165.71,45.53V31.61h3.62L176,40.12V31.61h3.6V45.53H176L169.33,37v8.51Z"></path><path class="cls-1" d="M182.54,31.61h5.35a6.34,6.34,0,0,1,2.67.57,7.1,7.1,0,0,1,3.65,3.74,6.68,6.68,0,0,1,.54,2.65,6.79,6.79,0,0,1-.53,2.63,7,7,0,0,1-1.46,2.23A7.15,7.15,0,0,1,190.58,45a6.4,6.4,0,0,1-2.69.57h-5.35Zm3.62,10.86H187a4.42,4.42,0,0,0,1.68-.3,3.4,3.4,0,0,0,2-2,4.33,4.33,0,0,0,.27-1.56,4.18,4.18,0,0,0-.28-1.55,3.53,3.53,0,0,0-.78-1.24,3.75,3.75,0,0,0-1.25-.81,4.38,4.38,0,0,0-1.66-.3h-.83Z"></path><path class="cls-1" d="M196.43,38.57A7.17,7.17,0,0,1,201,31.78a8.89,8.89,0,0,1,6.21,0,7.15,7.15,0,0,1,4.05,3.9,7.61,7.61,0,0,1,0,5.78,7.15,7.15,0,0,1-4.05,3.9,8.89,8.89,0,0,1-6.21,0,7.2,7.2,0,0,1-4.59-6.79Zm3.78,0a3.68,3.68,0,0,0,.32,1.53,3.77,3.77,0,0,0,.85,1.22,3.86,3.86,0,0,0,1.24.81,4,4,0,0,0,1.51.28,3.93,3.93,0,0,0,2.76-1.09,3.8,3.8,0,0,0,.86-1.22,3.93,3.93,0,0,0,0-3.06,3.8,3.8,0,0,0-.86-1.22,3.93,3.93,0,0,0-2.76-1.09,4,4,0,0,0-1.51.28,3.86,3.86,0,0,0-1.24.81,3.77,3.77,0,0,0-.85,1.22A3.71,3.71,0,0,0,200.21,38.57Z"></path><path class="cls-1" d="M214.14,45.53V31.61h3.62l6.68,8.51V31.61h3.61V45.53h-3.61L217.76,37v8.51Z"></path><path class="cls-1" d="M139.29,67.7V53.77h2.92a10.52,10.52,0,0,1,3.32.42,6.21,6.21,0,0,1,2.37,1.38,6.65,6.65,0,0,1,2.16,5.17,6.79,6.79,0,0,1-4.61,6.57,10.71,10.71,0,0,1-3.28.39Zm2.1-2h1a8.23,8.23,0,0,0,2.35-.29,5,5,0,0,0,1.7-1,4.76,4.76,0,0,0,1.55-3.68A4.82,4.82,0,0,0,146.4,57a5.78,5.78,0,0,0-4.06-1.27h-1Z"></path><path class="cls-1" d="M154.8,53.77V67.7h-2.1V53.77Z"></path><path class="cls-1" d="M165.31,60.45h5.75v.46a9.34,9.34,0,0,1-.37,2.77,5.92,5.92,0,0,1-1.22,2.1A6.31,6.31,0,0,1,164.54,68a6.78,6.78,0,0,1-5-2.11,7.27,7.27,0,0,1,8.25-11.68,8.82,8.82,0,0,1,2.66,2.16l-1.5,1.44a5.07,5.07,0,0,0-4.17-2.28A5,5,0,0,0,161.06,57a5.09,5.09,0,0,0-1.5,3.75A5.24,5.24,0,0,0,164.61,66a4.24,4.24,0,0,0,2.79-1,3.78,3.78,0,0,0,1.38-2.53h-3.47Z"></path><path class="cls-1" d="M175.8,53.77V67.7h-2.1V53.77Z"></path><path class="cls-1" d="M183.49,55.75v12h-2.1v-12h-3.2v-2h8.49v2Z"></path><path class="cls-1" d="M196,64.32h-6l-1.55,3.38H186.2l6.89-14.8,6.65,14.8h-2.3Zm-.86-2-2.06-4.73-2.17,4.73Z"></path><path class="cls-1" d="M203.58,53.77V65.72h4.1v2h-6.2V53.77Z"></path><path class="cls-1" d="M141.39,75.94V89.86h-2.1V75.94Z"></path><path class="cls-1" d="M144.57,89.86V75l10.15,10.62V75.94h2.1V90.71l-10.15-10.6v9.75Z"></path><path class="cls-1" d="M168,78l-1.7,1a3,3,0,0,0-.91-1.08,2.14,2.14,0,0,0-1.16-.29,2.17,2.17,0,0,0-1.46.5,1.53,1.53,0,0,0-.57,1.22c0,.68.5,1.23,1.51,1.64l1.39.57a5.93,5.93,0,0,1,2.48,1.68,3.76,3.76,0,0,1,.79,2.42,4.22,4.22,0,0,1-1.29,3.17,4.39,4.39,0,0,1-3.2,1.26,4.25,4.25,0,0,1-3-1.07,4.91,4.91,0,0,1-1.45-3l2.13-.47a3.6,3.6,0,0,0,.5,1.7,2.18,2.18,0,0,0,1.89.9,2.22,2.22,0,0,0,1.64-.66,2.3,2.3,0,0,0,.65-1.67,2.17,2.17,0,0,0-.12-.74,1.78,1.78,0,0,0-.35-.63,2.77,2.77,0,0,0-.62-.53,6.22,6.22,0,0,0-.9-.47L163,82.89c-1.91-.81-2.86-2-2.86-3.54a3.35,3.35,0,0,1,1.2-2.62,4.32,4.32,0,0,1,3-1.06A4.16,4.16,0,0,1,168,78Z"></path><path class="cls-1" d="M175,77.91v12h-2.1v-12h-3.2v-2h8.5v2Z"></path><path class="cls-1" d="M182.42,75.94V89.86h-2.1V75.94Z"></path><path class="cls-1" d="M190.44,77.91v12h-2.1v-12h-3.2v-2h8.5v2Z"></path><path class="cls-1" d="M197.61,75.94v8.38A4.63,4.63,0,0,0,198.2,87a3.13,3.13,0,0,0,4.93,0,4.56,4.56,0,0,0,.59-2.63V75.94h2.1v9a5,5,0,0,1-1.37,3.63,5.32,5.32,0,0,1-7.57,0,5,5,0,0,1-1.37-3.63v-9Z"></path><path class="cls-1" d="M213,77.91v12h-2.1v-12h-3.2v-2h8.49v2Z"></path><path class="cls-1" d="M225.75,77.91h-5.58v3.35h5.42v2h-5.42v4.66h5.58v2h-7.68V75.94h7.68Z"></path></svg> 