<svg version="1.1" id="Layer_1" xmlns="http://www.w3.org/2000/svg" xmlns:xlink="http://www.w3.org/1999/xlink" x="0px" y="0px"
	 viewBox="0 0 900 501" style="enable-background:new 0 0 900 501;" xml:space="preserve">
<path style="fill:#170D38;" d="M201.3,330.4c168.8-111.1,377.2-86.6,392.2-82.3c15,4.3,1.6-49.6,100.4-162.4c75.9-86.6,87.6-85.4,87.6-85.4
	h118.3v157c0,0-28.6,2.1-69.2,59.8c-40.6,57.7-40.8,70.5-40.8,70.5s20.5,2.1,69,16.2c51.8,15,41.9,14.8,41.9,14.8l-0.9,182.8h-46.5
	c0,0-51.6-10.8-168-38.6s-109-19.2-109-19.2s23.5,0,58.8,32.1s35.3,32.1,35.3,32.1H516l24.1-75.9c0,0-74.8-6.4-159.2,20.3
	c-84.4,26.7-88.8,55.6-88.8,55.6H44.4c0,0,46.8-81.2,96-129.3S201.3,330.4,201.3,330.4z"/>
</svg>