<?xml version="1.0" encoding="UTF-8"?><svg xmlns="http://www.w3.org/2000/svg" viewBox="0 0 596 164"><path d="M495.1,192.55c-6.29,25.12-9.62,54.22-9.62,84.24-.05,62.83,12.19,111.16,36.4,143.65,25.95,35.96,58.68,51,90.63,40.83,18.25-5.71,41.38-22.1,51.55-50.97,10.09-27.52,5.83-58.18-11.97-86.61-34.56,36.16-70.96,69.08-108.22,97.88-.8-.9-1.6-1.81-2.39-2.75h.02c37.74-29.18,74.6-62.59,109.56-99.32l1.59-1.67,1.26,1.93c19.48,29.95,24.3,62.54,13.58,91.76-13.35,37.91-44.62,50.32-53.89,53.22-7.02,2.2-14.05,3.28-21.01,3.29-26.31,.12-52.33-15.96-73.62-45.41-25.04-33.6-37.18-81.3-37.12-145.82,0-30.67,3.44-60.42,9.95-86.03l.16-.62,1.29,.97c.59,.46,1.21,.94,1.86,1.45Zm18.61,174.89c.4,1.26,.8,2.49,1.2,3.69,22.67-18.04,29.12-23.46,61.46-53.11,40.53-38.49,56.89-58.21,66.67-70,1.26-1.52,2.4-2.89,3.49-4.18l-2.52-2.65c-1.17,1.38-2.4,2.86-3.76,4.5-9.73,11.72-26,31.34-66.35,69.66-31.74,29.09-38.38,34.71-60.19,52.08Zm137.33-133.37l1.59,1.67,1.26-1.93c19.48-29.97,24.31-62.56,13.58-91.79-9.87-26.89-31.72-47.6-57.03-54.06-23.95-6.11-49.07,.96-70.7,19.92l-.24,.21c1,.74,1.98,1.49,2.98,2.24,26.41-22.95,51.02-22.93,67.06-18.84,24.16,6.16,45.05,26.01,54.51,51.78,10.09,27.49,5.83,58.17-11.98,86.61-101.58-106.27-190.98-155.39-224.75-173.94l-.14-.08c-.43,1.14-.88,2.28-1.33,3.42,34.02,18.69,123.61,68.05,225.18,174.78Zm-147.82-56.05c17.36,13.52,49.67,38.68,91.82,81.06l.05,.05c.86-.91,1.68-1.79,2.49-2.66-42.29-42.52-74.71-67.76-92.15-81.34l-3.8-2.85c-19.18-14.42-48.15-36.21-101.53-65.57-.72,1-1.45,1.98-2.18,2.95l.1,.06c53.36,29.33,82.28,51.08,101.42,65.47l3.78,2.84Zm218.32-55.87c-9.64-25.06-40.26-84.32-116.38-93.41-25.22-2.61-54.36,3.92-77.92,17.49-12.68,7.3-24.76,16.8-35.89,28.23l-.18,.18c1.04,.67,2.08,1.34,3.12,2.02,10.8-11.04,22.49-20.21,34.76-27.27,22.93-13.2,51.24-19.56,75.7-17.02,74.12,8.85,103.99,66.66,113.38,91.07,18.31,49.92,8.2,105.41-27.73,152.24l-.85,1.11,.85,1.11c35.56,46.23,45.67,101.71,27.74,152.2-14.53,39.65-44.65,70.3-82.62,84.1-35.21,12.79-73.01,9.25-106.45-10-23.61-13.24-57.91-44.76-76.93-90.05-22.03-47.93-38.62-159.27-6.67-257-1.04-.68-2.09-1.36-3.16-2.05l-.14,.44c-32.47,98.78-15.65,211.58,6.64,260.08,19.35,46.08,54.37,78.23,78.46,91.75,34.23,19.68,72.95,23.5,109.5,10.26,38.98-14.17,69.89-45.61,84.8-86.28,18.22-51.29,8.21-107.54-27.43-154.55,36.02-47.61,46.02-103.88,27.41-154.63ZM167.4,174.54l-.19,1.61,.62-.17c25.44-7.17,52.92-19.06,79.48-34.4,55.91-32.21,91.14-66.58,107.73-105.06,14.86-33.16,15.78-63.74,2.52-86.47-3.48-6.03-7.94-11.57-13.35-16.55-7.14-6.57-33.52-27.45-73.03-20.06-30.67,5.33-56.48,25.81-72.68,57.65l-1.04,2.05,2.24,.54C248.97-14.42,296.34,.8,340.46,18.9h.02c.42-1.15,.81-2.29,1.18-3.44C298.1-2.4,251.39-17.46,202.8-29.31c15.72-29.62,40.14-48.65,69.02-53.67,30.09-5.63,55.85,6.2,69.92,19.16,24.79,22.59,28.12,58.45,9.96,98.9-16.03,37.21-51.76,71.98-106.2,103.35-25.99,15.01-52.86,26.67-77.77,33.79-.11,.81-.22,1.59-.32,2.33Zm142.48-105.9c.89-.97,1.76-1.94,2.6-2.89-26.96-10.61-34.88-13.49-76.73-26.67-53.6-15.86-78.86-20.17-93.95-22.74-1.94-.33-3.7-.63-5.36-.93l-1.03,3.51c1.78,.32,3.68,.65,5.78,1.01,15.01,2.56,40.14,6.85,93.5,22.63,41.06,12.94,49.25,15.88,75.19,26.08ZM125.71,16.39l.65-2.21-2.3-.12c-35.69-1.89-66.34,10.23-86.28,34.13-18.35,21.99-25.37,51.27-18.3,76.41,6.69,23.8,25.36,42.01,52.59,51.27l.3,.1c.14-1.23,.3-2.46,.45-3.7-33.08-11.39-45.37-32.72-49.84-48.66-6.74-24.01,0-52.02,17.59-73.1C59.34,28.03,88.03,16.39,121.57,17.59c-41.24,141.1-39.08,243.09-38.26,281.61v.16c1.21-.2,2.42-.38,3.63-.56-.82-38.81-2.87-141.07,38.78-282.41Zm25.37,156.04c3.03-21.79,8.66-62.36,24.29-120.05l.02-.07c-1.21-.29-2.39-.56-3.54-.83-15.67,57.89-21.33,98.58-24.37,120.48l-.57,4.71c-2.9,23.82-7.28,59.81-6.02,120.71,1.22,.12,2.43,.27,3.65,.41v-.12c-1.28-60.87,3.09-96.79,5.99-120.56l.57-4.69ZM-6.46,11.3c-16.88,20.87-52.89,77.03-22.71,147.49,10.35,23.15,30.57,45.11,54.1,58.74,12.66,7.33,26.93,13.04,42.39,16.97l.25,.06c.06-1.24,.12-2.47,.18-3.71-14.96-3.84-28.75-9.37-41-16.46-22.89-13.26-42.55-34.6-52.59-57.05C-55.23,88.71-20.1,33.95-3.65,13.61,30.43-27.21,83.54-46.2,142.06-38.5l1.39,.18,.53-1.29c22.25-53.91,65.25-90.41,117.94-100.12,41.6-7.24,83.2,3.52,114.14,29.5,28.69,24.09,44.52,58.61,44.57,97.19,.33,27.07-9.81,72.53-39.52,111.65-30.49,43.04-118.62,113.08-219.24,134.28-.07,1.24-.13,2.49-.19,3.76l.45-.09c101.78-21.27,191.06-92.24,221.91-135.79,30.23-39.8,40.57-86.2,40.22-113.82-.08-39.48-16.12-74.93-45.87-99.95-31.76-26.68-74.44-37.72-117.12-30.3-53.53,9.87-97.24,46.66-120.13,101.03C81.91-49.67,28.18-30.2-6.46,11.3ZM435.64,426.56c-.5-1.12-.99-2.24-1.47-3.36l-.1,.06" style="fill:#ef4a3b;"/></svg>