<svg width="30" height="48" viewBox="0 0 30 48" fill="none" xmlns="http://www.w3.org/2000/svg">
<path d="M15 0.0270996C6.714 0.0270996 0 6.7141 0 14.9971C0 29.3191 15 47.9971 15 47.9971C15 47.9971 30 29.3161 30 14.9971C30 6.7171 23.286 0.0270996 15 0.0270996ZM15 23.2801C12.8517 23.2801 10.7915 22.4267 9.27244 20.9077C7.75339 19.3886 6.9 17.3284 6.9 15.1801C6.9 13.0318 7.75339 10.9716 9.27244 9.45253C10.7915 7.93349 12.8517 7.0801 15 7.0801C17.1483 7.0801 19.2085 7.93349 20.7276 9.45253C22.2466 10.9716 23.1 13.0318 23.1 15.1801C23.1 17.3284 22.2466 19.3886 20.7276 20.9077C19.2085 22.4267 17.1483 23.2801 15 23.2801Z" fill="#394851"/>
</svg>
