<svg width="62" height="58" viewBox="0 0 62 58" fill="none" xmlns="http://www.w3.org/2000/svg">
<path d="M61.066 41.0895C59.6584 40.9864 58.2626 40.7603 56.8944 40.414C53.4238 39.5705 49.9176 37.3276 48.2281 33.7438C47.3503 31.8826 47.8923 31.3788 49.737 30.6905C51.541 30.0201 53.5281 29.7084 54.4263 27.7644C55.1757 26.1411 54.5701 24.2328 53.102 23.2494C51.1033 21.9097 49.2408 23.2227 47.1709 23.5127C47.6455 17.5766 48.2727 12.2448 44.2868 7.26281C40.9829 3.13322 35.7923 0.988281 30.5699 0.988281C25.3475 0.988281 20.1556 3.13322 16.8542 7.26408C12.862 12.2588 13.4956 17.5919 13.9701 23.5382C11.8939 23.2519 10.0504 21.911 8.03781 23.2608C6.16512 24.5139 5.87506 27.0469 7.34573 28.7313C8.8164 30.4157 11.371 29.9399 12.8735 31.3521C13.6991 32.1268 13.3175 32.9563 12.8289 33.9143C10.9868 37.5274 7.83426 39.7334 3.94384 40.4738C3.43496 40.5705 1.10555 40.8389 0 40.9381C0 42.1188 0.0661547 43.0729 0.20737 43.7027C0.581399 45.3642 1.77473 46.7025 3.22123 47.532C4.64356 48.3462 7.73502 48.35 8.52379 49.5052C8.90545 50.0751 8.7477 51.0675 9.20188 51.7163C9.66358 52.3725 10.3669 52.8186 11.1573 52.9567C13.5248 53.416 15.9051 52.0407 18.3351 52.6895C20.2243 53.1921 21.709 54.7085 23.3297 55.7428C25.3029 56.996 27.4441 57.8318 29.7964 57.9679C34.6435 58.2491 37.4207 55.5622 41.32 53.3345C43.8008 51.9173 46.1735 52.8435 48.8108 52.9936C51.3679 53.1399 51.8043 51.8168 52.5791 49.8283C52.6634 49.6292 52.729 49.4226 52.775 49.2113C52.8793 49.1618 52.9768 49.0989 53.0651 49.0243C53.3195 48.8246 54.4072 48.7266 54.6884 48.6605C55.9962 48.35 57.2761 48.0053 58.3994 47.2356C59.8383 46.2483 60.6449 44.882 60.8904 43.0831C61.0047 42.4247 61.0634 41.7578 61.066 41.0895ZM24.4264 13.2015C25.551 13.2015 26.4619 14.5678 26.4619 16.2548C26.4619 17.9417 25.551 19.3081 24.4264 19.3081C23.3018 19.3081 22.3909 17.9417 22.3909 16.2548C22.3909 14.5678 23.3018 13.2015 24.4264 13.2015ZM37.609 23.0865C35.6689 24.9948 33.1563 26.0508 30.533 26.0508C29.215 26.0484 27.9106 25.7848 26.6951 25.2751C25.4797 24.7654 24.3773 24.0198 23.4519 23.0814C23.2609 22.8905 23.1536 22.6315 23.1536 22.3614C23.1536 22.0913 23.2609 21.8323 23.4519 21.6413C23.6429 21.4503 23.9019 21.343 24.1719 21.343C24.442 21.343 24.701 21.4503 24.892 21.6413C25.6287 22.3902 26.5065 22.9857 27.4748 23.3931C28.443 23.8006 29.4825 24.0121 30.533 24.0152C32.6181 24.0152 34.6231 23.1705 36.1803 21.6362C36.3726 21.4468 36.6323 21.3415 36.9023 21.3435C37.1723 21.3455 37.4304 21.4547 37.6198 21.647C37.8093 21.8394 37.9146 22.0991 37.9125 22.369C37.9105 22.639 37.8013 22.8971 37.609 23.0865ZM36.6396 19.3081C35.515 19.3081 34.6041 17.9405 34.6041 16.2548C34.6041 14.5691 35.515 13.2015 36.6396 13.2015C37.7642 13.2015 38.6751 14.5691 38.6751 16.2548C38.6751 17.9405 37.7642 19.3081 36.6396 19.3081Z" fill="#fffc00"/>
</svg>
