<svg width="91" height="90" viewBox="0 0 91 90" fill="none" xmlns="http://www.w3.org/2000/svg">
<g clip-path="url(#clip0)">
<path d="M28.9954 90V60.1875C25.6204 58.5 23.3704 54.5625 23.3704 50.625V28.125C23.3704 24.1875 25.6204 20.8125 28.9954 18.5625V16.875C28.9954 10.6875 23.9329 5.625 17.7454 5.625C11.5579 5.625 6.49536 10.6875 6.49536 16.875C6.49536 23.0625 11.5579 28.125 17.7454 28.125H6.49536C3.68286 28.125 0.870361 30.9375 0.870361 33.75V56.25C0.870361 59.0625 3.68286 61.875 6.49536 61.875V90H28.9954Z" fill="#D70A26"/>
<path d="M85.2454 28.125H73.9954C80.1829 28.125 85.2454 23.0625 85.2454 16.875C85.2454 10.6875 80.1829 5.625 73.9954 5.625C67.8079 5.625 62.7454 10.6875 62.7454 16.875V18.5625C66.1204 20.8125 68.3704 24.1875 68.3704 28.125V50.625C68.3704 54.5625 66.1204 58.5 62.7454 60.1875V90H85.2454V61.875C88.0579 61.875 90.8704 59.0625 90.8704 56.25V33.75C90.8704 30.9375 88.0579 28.125 85.2454 28.125Z" fill="#D70A26"/>
<path d="M57.1202 11.2498C57.1541 12.7479 56.8883 14.2377 56.3385 15.6318C55.7886 17.0258 54.9658 18.2959 53.9184 19.3676C52.871 20.4393 51.62 21.2909 50.2389 21.8724C48.8578 22.454 47.3744 22.7537 45.8759 22.7541C44.3773 22.7545 42.8938 22.4555 41.5124 21.8746C40.131 21.2937 38.8796 20.4428 37.8316 19.3716C36.7836 18.3005 35.9602 17.0308 35.4097 15.637C34.8592 14.2432 34.5927 12.7535 34.6258 11.2554C34.6908 8.31597 35.9039 5.51881 38.0055 3.46267C40.1071 1.40653 42.9301 0.254825 45.8702 0.25409C48.8104 0.253354 51.6339 1.40365 53.7366 3.45874C55.8392 5.51382 57.0537 8.31038 57.1202 11.2498Z" fill="#D70A26"/>
<path d="M57.1204 22.5H34.6204C31.8079 22.5 28.9954 25.3125 28.9954 28.125V50.625C28.9954 53.4375 31.8079 56.25 34.6204 56.25V90H57.1204V56.25C59.9329 56.25 62.7454 53.4375 62.7454 50.625V28.125C62.7454 25.3125 59.9329 22.5 57.1204 22.5Z" fill="#D70A26"/>
</g>
<defs>
<clipPath id="clip0">
<rect x="0.870361" width="90" height="90" fill="white"/>
</clipPath>
</defs>
</svg>
