<svg width="40" height="40" viewBox="0 0 40 40" fill="none" xmlns="http://www.w3.org/2000/svg">
<path d="M38.776 0.809925C38.6599 0.520948 38.437 0.287831 38.1534 0.159068C37.8699 0.0303059 37.5476 0.0158127 37.2537 0.118604C36.9598 0.221395 36.7167 0.433556 36.5752 0.71095C36.4337 0.988345 36.4046 1.30961 36.494 1.60792C38.352 6.94792 34.664 10.9359 31.852 13.0719L30.716 11.4439C30.334 10.8979 29.48 10.4439 28.816 10.4359L22.44 10.4639C21.6611 10.4874 20.903 10.721 20.246 11.1399L1.45797 24.3139C1.02096 24.6215 0.723612 25.0896 0.631024 25.6159C0.538437 26.1422 0.658157 26.6837 0.963973 27.1219L9.50197 39.3379C10.142 40.2479 11.164 40.1379 12.076 39.5019L30.864 26.3259C31.404 25.9439 32.028 25.1199 32.248 24.4899L34.244 18.1999C34.464 17.5719 34.33 16.6139 33.948 16.0679L33.256 15.0759C37.032 12.1819 40.952 7.06792 38.776 0.809925ZM30.034 19.5259C29.6879 19.7682 29.2974 19.9399 28.8849 20.0312C28.4724 20.1226 28.0459 20.1317 27.6299 20.0582C27.2138 19.9846 26.8164 19.8298 26.4602 19.6026C26.104 19.3754 25.796 19.0802 25.554 18.7339C25.0638 18.0332 24.8717 17.1667 25.0198 16.3245C25.168 15.4823 25.6442 14.7333 26.344 14.2419C26.8926 13.8576 27.5476 13.6542 28.2174 13.6603C28.8873 13.6664 29.5384 13.8816 30.08 14.2759C29.536 14.6039 29.162 14.7959 29.092 14.8259C28.8441 14.9441 28.6436 15.143 28.5236 15.3901C28.4035 15.6371 28.3709 15.9176 28.4311 16.1856C28.4913 16.4535 28.6407 16.6931 28.8549 16.8651C29.0691 17.037 29.3353 17.1311 29.61 17.1319C29.782 17.1319 29.958 17.0919 30.124 17.0139C30.512 16.8299 30.928 16.6119 31.362 16.3539C31.4618 16.954 31.3901 17.5702 31.1552 18.1313C30.9202 18.6925 30.5316 19.1759 30.034 19.5259Z" fill="#394851"/>
</svg>
