<svg width="58" height="58" viewBox="0 0 58 58" fill="none" xmlns="http://www.w3.org/2000/svg">
<path d="M40.824 49.5618V36.3354C40.824 33.1814 40.7599 29.1225 36.4255 29.1225C32.0246 29.1225 31.3525 32.5544 31.3525 36.1027V49.5618H22.9117V22.3633H31.02V26.0707H31.1292C32.2621 23.9332 35.0171 21.6769 39.133 21.6769C47.6854 21.6769 49.2671 27.3057 49.2671 34.6325V49.5618H40.824ZM13.3785 18.6417C12.7346 18.642 12.0969 18.5153 11.502 18.2689C10.9071 18.0225 10.3667 17.6611 9.91156 17.2056C9.45647 16.7501 9.09567 16.2093 8.84984 15.6141C8.604 15.019 8.47794 14.3812 8.47887 13.7373C8.47934 12.7678 8.7673 11.8201 9.30633 11.0143C9.84536 10.2084 10.6113 9.58048 11.5072 9.20989C12.4031 8.8393 13.3887 8.74271 14.3395 8.93231C15.2903 9.12192 16.1636 9.58921 16.8488 10.2751C17.534 10.961 18.0005 11.8347 18.1891 12.7857C18.3778 13.7366 18.2803 14.7222 17.9088 15.6178C17.5374 16.5133 16.9087 17.2786 16.1023 17.8168C15.2959 18.3551 14.348 18.6421 13.3785 18.6417ZM17.6108 49.5618H9.14625V22.3633H17.6108V49.5618ZM53.4875 0.988281H4.90925C2.58413 0.988281 0.703125 2.82653 0.703125 5.09466V53.8819C0.703125 56.1524 2.58413 57.9883 4.90925 57.9883H53.4804C55.8031 57.9883 57.7031 56.1524 57.7031 53.8819V5.09466C57.7031 2.82653 55.8031 0.988281 53.4804 0.988281H53.4875Z" fill="white"/>
</svg>
