<?xml version="1.0" encoding="utf-8"?>
<!-- Generator: Adobe Illustrator 26.5.0, SVG Export Plug-In . SVG Version: 6.00 Build 0)  -->
<svg version="1.1" id="LINE" xmlns="http://www.w3.org/2000/svg" xmlns:xlink="http://www.w3.org/1999/xlink" x="0px" y="0px"
	 viewBox="0 0 240 193.2" style="enable-background:new 0 0 240 193.2;" xml:space="preserve">
<style type="text/css">
	.st0{fill:#EF4A3B;}
</style>
<path class="st0" d="M244.7,51.4l1.7-0.7l-68.1,25.4l0.7-0.3l-0.2-0.2c-9.5-9.2-21.5-18.2-34.8-25.8c-27.9-16.2-51.6-22.8-72.4-20.4
	c-18.1,1.9-31.5,9.1-38.1,20.5c-1.7,3-3,6.3-3.8,9.9c-1.1,4.7-3.5,21.4,9.6,36.6c10,11.9,25.3,18,43.1,17.1l1.2-0.1l-0.3-1.1
	c-7.2-24.3-12.4-48.6-15.6-72.3l0,0c-0.6,0.1-1.2,0.2-1.8,0.3c3.2,23.3,8.3,47.3,15.3,71.3c-16.8,0.6-31.1-5.2-40.5-16.5
	c-10-11.6-11.3-25.7-9.2-35.1c3.6-16.4,18.3-26.8,40.3-29c20.1-2.4,44.1,4.4,71.3,20.1c13,7.5,24.8,16.2,34.1,25.2
	c0.4-0.2,0.8-0.3,1.1-0.4L244.7,51.4z M96.8,40.9c-0.7-0.1-1.3-0.3-1.9-0.4c2.2,14.3,2.9,18.5,7.6,39.9c6.5,27.2,11,39.2,13.6,46.4
	c0.3,0.9,0.7,1.8,0.9,2.6l1.8-0.4c-0.3-0.9-0.6-1.8-1-2.8c-2.6-7.1-7.1-19.1-13.6-46.2C99.7,59,98.9,54.7,96.8,40.9L96.8,40.9z
	 M120.2,133.7l-1.1,0.3l0.5,1c8.1,15.9,21,26.2,36.4,28.8c14.1,2.4,28.5-1.8,37.7-11.2c8.6-8.8,11.9-21.5,9.1-35.6l0-0.2
	c-0.6,0.2-1.1,0.5-1.7,0.7c3.3,17.2-2.8,27.8-8.6,33.8c-8.7,8.9-22.5,13-36.1,10.7c-14.4-2.5-26.6-12-34.5-26.8
	c71.4-17.4,115-43.8,131.5-53.8l0.1,0c-0.4-0.5-0.8-0.9-1.1-1.4C235.6,90,191.9,116.4,120.2,133.7L120.2,133.7z M181.5,83.7
	c-10.2,4.1-29.2,11.8-58.1,19.5h0c0.2,0.6,0.3,1.2,0.5,1.8c29-7.7,48-15.4,58.3-19.6l2.2-0.9c11-4.7,27.7-11.8,53.8-27.6
	c-0.2-0.6-0.5-1.1-0.7-1.7l-0.1,0c-26,15.8-42.7,22.9-53.7,27.6L181.5,83.7L181.5,83.7z M151.1,192.2c13.3,2.1,46.6,3.6,69.5-27
	c7.4-10.3,11.9-24.5,11.9-38.1c0-7.3-1.1-14.9-3.2-22.6l0-0.1c-0.6,0.3-1.1,0.6-1.6,0.8c2.1,7.4,3.1,14.8,3.1,21.9
	c0,13.2-4.3,27.1-11.6,37c-22.4,29.9-54.9,28.4-67.8,26.3c-26.2-4.6-47.7-22.8-59-50.1l-0.3-0.6l-0.7,0.1
	c-28.9,3.8-55.5-5.6-72.8-26C5.1,97.6-0.7,76.9,2.8,57C6.1,38.5,17.1,23,33.8,13.4C45.4,6.5,67.6-0.5,92,2.6
	c26.3,2.4,78.6,23.1,112.9,61.4c0.6-0.3,1.1-0.6,1.7-0.9l-0.1-0.2C171.8,24.1,118.8,3.2,92.2,0.8c-24.8-3.1-47.5,4-59.3,11
	C15.8,21.7,4.4,37.5,1,56.7c-3.6,20.4,2.3,41.7,16.2,58.3c17.7,20.7,44.5,30.4,73.8,26.8C102.6,169.2,124.5,187.6,151.1,192.2
	L151.1,192.2z"/>
</svg>
