<?xml version="1.0" encoding="utf-8"?>
<svg version="1.1" id="masthead-knot-lavender" xmlns="http://www.w3.org/2000/svg" xmlns:xlink="http://www.w3.org/1999/xlink" x="0px" y="0px"
	 viewBox="0 0 733 307.1" style="enable-background:new 0 0 733 307.1;" xml:space="preserve">
<style type="text/css">
	.masthead-knot-lavender{fill:#E8C7FF;stroke:#E8C7FF;stroke-width:5;stroke-miterlimit:10;}
</style>
<path class="masthead-knot-lavender" d="M531.2,430.9c0-30.7,3.4-60.4,10-86l0.2-0.6l1.3,1c0.6,0.5,1.2,0.9,1.9,1.4c-6.3,25.1-9.6,54.2-9.6,84.2
	 M692.4,402.1c1.3-1.5,2.4-2.9,3.5-4.2l-2.5-2.7c-1.2,1.4-2.4,2.9-3.8,4.5 M700.4,388.2l1.6,1.7l1.3-1.9
	c19.5-30,24.3-62.6,13.6-91.8c-9.9-26.9-31.7-47.6-57-54.1c-24-6.1-49.1,1-70.7,19.9l-0.2,0.2c1,0.7,2,1.5,3,2.2
	c26.4-23,51-22.9,67.1-18.8c24.2,6.2,45.1,26,54.5,51.8c10.1,27.5,5.8,58.2-12,86.6C599.8,277.7,510.4,228.6,476.7,210l-0.1-0.1
	c-0.4,1.1-0.9,2.3-1.3,3.4C509.2,232.1,598.8,281.4,700.4,388.2z M552.6,332.1c17.4,13.5,49.7,38.7,91.8,81.1l0,0
	c0.9-0.9,1.7-1.8,2.5-2.7c-42.3-42.5-74.7-67.8-92.2-81.3l-3.8-2.9c-19.2-14.4-48.2-36.2-101.5-65.6c-0.7,1-1.4,2-2.2,3l0.1,0.1
	c53.4,29.3,82.3,51.1,101.4,65.5L552.6,332.1z M743.5,430.9c36-47.6,46-103.9,27.4-154.6c-9.6-25.1-40.3-84.3-116.4-93.4
	c-25.2-2.6-54.4,3.9-77.9,17.5c-12.7,7.3-24.8,16.8-35.9,28.2l-0.2,0.2c1,0.7,2.1,1.3,3.1,2c10.8-11,22.5-20.2,34.8-27.3
	c22.9-13.2,51.2-19.6,75.7-17c74.1,8.9,104,66.7,113.4,91.1c18.3,49.9,8.2,105.4-27.7,152.2l-0.9,1.1l0.9,1.1 M494.8,311.2
	c-1-0.7-2.1-1.4-3.2-2l-0.1,0.4 M216.7,328.6l-0.2,1.6l0.6-0.2c25.4-7.2,52.9-19.1,79.5-34.4c55.9-32.2,91.1-66.6,107.7-105.1
	c14.9-33.2,15.8-63.7,2.5-86.5c-3.5-6-7.9-11.6-13.4-16.6c-7.1-6.6-33.5-27.4-73-20.1c-30.7,5.3-56.5,25.8-72.7,57.6l-1,2.1l2.2,0.5
	c49.3,11.9,96.7,27.1,140.8,45.2l0,0c0.4-1.2,0.8-2.3,1.2-3.4c-43.6-17.9-90.3-32.9-138.9-44.8c15.7-29.6,40.1-48.6,69-53.7
	c30.1-5.6,55.8,6.2,69.9,19.2c24.8,22.6,28.1,58.4,10,98.9c-16,37.2-51.8,72-106.2,103.3c-26,15-52.9,26.7-77.8,33.8
	C216.9,327.1,216.8,327.9,216.7,328.6z M359.2,222.7c0.9-1,1.8-1.9,2.6-2.9c-27-10.6-34.9-13.5-76.7-26.7
	c-53.6-15.9-78.9-20.2-94-22.7c-1.9-0.3-3.7-0.6-5.4-0.9l-1,3.5c1.8,0.3,3.7,0.6,5.8,1c15,2.6,40.1,6.8,93.5,22.6
	C325.1,209.6,333.3,212.5,359.2,222.7z M175,170.5l0.7-2.2l-2.3-0.1c-35.7-1.9-66.3,10.2-86.3,34.1c-18.4,22-25.4,51.3-18.3,76.4
	c6.7,23.8,25.4,42,52.6,51.3l0.3,0.1c0.1-1.2,0.3-2.5,0.4-3.7c-33.1-11.4-45.4-32.7-49.8-48.7c-6.7-24,0-52,17.6-73.1
	c18.8-22.5,47.5-34.1,81-32.9c-41.2,141.1-39.1,243.1-38.3,281.6l0,0.2c1.2-0.2,2.4-0.4,3.6-0.6C135.4,414.1,133.4,311.8,175,170.5z
	 M200.4,326.5c3-21.8,8.7-62.4,24.3-120l0-0.1c-1.2-0.3-2.4-0.6-3.5-0.8c-15.7,57.9-21.3,98.6-24.4,120.5l-0.6,4.7
	c-2.9,23.8-7.3,59.8-6,120.7c1.2,0.1,2.4,0.3,3.6,0.4l0-0.1c-1.3-60.9,3.1-96.8,6-120.6L200.4,326.5z M42.9,165.4
	C26,186.3-10,242.4,20.2,312.9C30.5,336,50.7,358,74.3,371.6c12.7,7.3,26.9,13,42.4,17l0.2,0.1c0.1-1.2,0.1-2.5,0.2-3.7
	c-15-3.8-28.8-9.4-41-16.5c-22.9-13.3-42.6-34.6-52.6-57C-5.9,242.8,29.2,188,45.7,167.7c34.1-40.8,87.2-59.8,145.7-52.1l1.4,0.2
	l0.5-1.3c22.3-53.9,65.3-90.4,117.9-100.1c41.6-7.2,83.2,3.5,114.1,29.5c28.7,24.1,44.5,58.6,44.6,97.2
	c0.3,27.1-9.8,72.5-39.5,111.6c-30.5,43-118.6,113.1-219.2,134.3c-0.1,1.2-0.1,2.5-0.2,3.8l0.5-0.1
	c101.8-21.3,191.1-92.2,221.9-135.8c30.2-39.8,40.6-86.2,40.2-113.8c-0.1-39.5-16.1-74.9-45.9-100C396,14.4,353.3,3.3,310.6,10.8
	c-53.5,9.9-97.2,46.7-120.1,101C131.2,104.4,77.5,123.9,42.9,165.4z M193.1,468.4"/>
</svg>
