<svg width="58" height="58" viewBox="0 0 58 58" fill="none" xmlns="http://www.w3.org/2000/svg">
<path d="M29.3439 14.865C21.2517 14.865 14.7209 21.3959 14.7209 29.4883C14.7209 37.5806 21.2517 44.1115 29.3439 44.1115C37.4361 44.1115 43.9669 37.5806 43.9669 29.4883C43.9669 21.3959 37.4361 14.865 29.3439 14.865ZM29.3439 38.9923C24.1107 38.9923 19.84 34.7216 19.84 29.4883C19.84 24.255 24.1107 19.9842 29.3439 19.9842C34.5771 19.9842 38.8478 24.255 38.8478 29.4883C38.8478 34.7216 34.5771 38.9923 29.3439 38.9923ZM44.5658 10.8581C42.6764 10.8581 41.1507 12.3838 41.1507 14.2733C41.1507 16.1627 42.6764 17.6884 44.5658 17.6884C46.4551 17.6884 47.9809 16.1698 47.9809 14.2733C47.9815 13.8246 47.8935 13.3803 47.7221 12.9657C47.5507 12.551 47.2991 12.1743 46.9819 11.8571C46.6647 11.5399 46.288 11.2883 45.8734 11.1169C45.4588 10.9455 45.0144 10.8575 44.5658 10.8581ZM57.8484 29.4883C57.8484 25.5526 57.884 21.6526 57.663 17.7241C57.442 13.161 56.4011 9.11126 53.0644 5.77451C49.7205 2.43062 45.678 1.3968 41.115 1.17578C37.1794 0.954753 33.2795 0.990402 29.351 0.990402C25.4154 0.990402 21.5155 0.954753 17.5871 1.17578C13.0241 1.3968 8.97439 2.43775 5.6377 5.77451C2.29388 9.11839 1.26008 13.161 1.03905 17.7241C0.818035 21.6597 0.853683 25.5597 0.853683 29.4883C0.853683 33.4168 0.818035 37.3239 1.03905 41.2525C1.26008 45.8156 2.30101 49.8653 5.6377 53.202C8.98152 56.5459 13.0241 57.5798 17.5871 57.8008C21.5226 58.0218 25.4226 57.9862 29.351 57.9862C33.2866 57.9862 37.1866 58.0218 41.115 57.8008C45.678 57.5798 49.7277 56.5388 53.0644 53.202C56.4082 49.8582 57.442 45.8156 57.663 41.2525C57.8912 37.3239 57.8484 33.4239 57.8484 29.4883ZM51.5743 46.3004C51.0538 47.598 50.4264 48.5677 49.4211 49.5658C48.4158 50.5711 47.4533 51.1986 46.1557 51.719C42.4055 53.2092 33.5005 52.8741 29.3439 52.8741C25.1873 52.8741 16.2752 53.2092 12.525 51.7262C11.2274 51.2057 10.2577 50.5783 9.25958 49.573C8.2543 48.5677 7.62688 47.6051 7.10642 46.3075C5.62344 42.5501 5.95854 33.645 5.95854 29.4883C5.95854 25.3316 5.62344 16.4193 7.10642 12.669C7.62688 11.3714 8.2543 10.4018 9.25958 9.40359C10.2649 8.40541 11.2274 7.77086 12.525 7.25038C16.2752 5.76738 25.1873 6.10248 29.3439 6.10248C33.5005 6.10248 42.4126 5.76738 46.1628 7.25038C47.4604 7.77086 48.4301 8.39828 49.4282 9.40359C50.4335 10.4089 51.0609 11.3714 51.5814 12.669C53.0644 16.4193 52.7293 25.3316 52.7293 29.4883C52.7293 33.645 53.0644 42.5501 51.5743 46.3004Z" fill="white"/>
</svg>
