<svg width="83" height="92" viewBox="0 0 83 92" fill="#ffffff" xmlns="http://www.w3.org/2000/svg">
    <path d="M55.7678 2.36663C61.9095 0.573286 78.3793 7.94846 80.3687 10.4608C82.3383 13.0045 68.1763 13.6383 60.4458 14.5719C52.444 15.5297 44.4293 16.7319 42.4584 14.1996C40.4746 11.6872 49.6474 4.14151 55.772 2.36663"/>
    <path d="M11.7789 6.24611C17.1533 4.50108 32.3953 10.6868 34.3478 12.9122C36.2875 15.1262 23.6247 16.0413 16.7497 17.0602C9.6559 18.1274 2.58057 19.4021 0.646538 17.1696C-1.28607 14.9684 6.41168 8.00251 11.7789 6.24611Z"/>
    <path d="M12.7194 12.5539C16.4098 10.1268 32.2927 12.6094 34.9699 14.1341C37.6727 15.6461 27.4313 18.7084 22.1096 20.8002C16.6372 22.9644 11.2756 25.3376 8.57989 23.7887C5.86713 22.2824 9.04457 15.0052 12.7222 12.5539"/>
    <path d="M27.6084 1.01946C32.9813 1.50119 38.6356 10.8999 38.1112 13.1267C37.6053 15.3406 27.6695 11.9188 21.8191 10.4253C15.7939 8.89341 9.57827 7.53917 10.1154 5.32519C10.6341 3.08706 22.2226 0.543409 27.6084 1.01946Z"/>
    <path d="M53.0113 11.528C58.4041 11.9912 64.0527 21.3971 63.5269 23.6167C63.0026 25.8435 53.0724 22.4145 47.222 20.9267C41.2138 19.4019 34.9798 18.0292 35.5169 15.8096C36.0256 13.5899 47.6383 11.059 53.0113 11.5322"/>
    <path d="M55.0422 22.5809C55.0426 23.2474 54.9116 23.9074 54.6567 24.5232C54.4018 25.1391 54.028 25.6986 53.5568 26.1699C53.0855 26.6412 52.5259 27.015 51.9101 27.2699C51.2942 27.5248 50.6342 27.6558 49.9677 27.6554H35.5229C34.177 27.6554 32.8863 27.1207 31.9347 26.1691C30.983 25.2174 30.4484 23.9267 30.4484 22.5809C30.4484 21.235 30.983 19.9443 31.9347 18.9926C32.8863 18.041 34.177 17.5063 35.5229 17.5063H49.9663C50.6328 17.5062 51.2928 17.6373 51.9087 17.8922C52.5245 18.1471 53.0841 18.5209 53.5554 18.9921C54.0268 19.4634 54.4007 20.0228 54.6558 20.6386C54.9109 21.2544 55.0422 21.9143 55.0422 22.5809Z"/>
    <path fill-rule="evenodd" clip-rule="evenodd" d="M42.7457 91.5736C22.2572 91.5736 3.10449 87.67 3.10449 74.2683C3.10449 60.8935 22.2572 20.934 42.7457 20.934C63.2342 20.934 82.3926 60.8921 82.3926 74.2683C82.3926 87.67 63.2328 91.5736 42.7457 91.5736ZM41.0159 62.6887L40.8827 59.6023H47.5438V54.3623H40.6829L40.483 49.322C40.483 47.901 40.8013 46.8278 41.4378 46.1025C42.0891 45.3772 42.9032 45.0145 43.8802 45.0145C45.0792 45.0145 45.9969 45.3476 46.6334 46.0137C47.2848 46.6798 47.6104 47.642 47.6104 48.9002H53.9829C53.9829 46.0581 53.0873 43.8081 51.2962 42.1502C49.5051 40.4776 47.0405 39.6412 43.9024 39.6412C40.8383 39.6412 38.3885 40.5072 36.553 42.2391C34.7323 43.9709 33.8219 46.3319 33.8219 49.322L33.9774 54.3623H30.558V59.6023H34.155L34.266 63.0661C34.266 65.4493 33.7331 66.7741 32.6673 67.0406H30.6246V72.3917H54.1383V67.0406H39.6393C40.557 65.96 41.0159 64.5094 41.0159 62.6887Z"/>
</svg>
