<svg id="Layer_2" data-name="Layer 2" xmlns="http://www.w3.org/2000/svg" viewBox="0 0 500.24 450.94">
  <defs>
    <style>
      .cls-funding1 {
        fill: none;
        stroke-width: 24.18px;
      }

      .cls-funding1, .cls-funding2 {
        stroke: #170f39;
        stroke-miterlimit: 10;
      }

      .cls-funding2 {
        stroke-width: 11.34px;
      }

      .cls-funding2, .cls-funding3 {
        fill: #170f39;
      }

      .cls-funding3 {
        stroke-width: 0px;
      }
    </style>
  </defs>
  <g id="Layer_13" data-name="Layer 13">
    <ellipse class="cls-funding1" cx="186.23" cy="108.45" rx="73.34" ry="32.12"></ellipse>
    <path class="cls-funding1" d="m259.57,108.45c0,17.74-32.84,32.12-73.34,32.12-40.51,0-73.34-14.38-73.34-32.12"></path>
    <path class="cls-funding1" d="m259.57,145.15c0,17.74-32.84,32.12-73.34,32.12-40.51,0-73.34-14.38-73.34-32.12"></path>
    <path class="cls-funding1" d="m112.89,110.59v71.27c0,17.74,32.84,32.12,73.34,32.12,40.51,0,73.34-14.38,73.34-32.12v-71.27"></path>
    <ellipse class="cls-funding1" cx="314.58" cy="44.21" rx="73.34" ry="32.12"></ellipse>
    <path class="cls-funding1" d="m387.92,44.21c0,17.74-32.84,32.12-73.34,32.12-40.51,0-73.34-14.38-73.34-32.12"></path>
    <path class="cls-funding1" d="m387.92,80.92c0,17.74-32.84,32.12-73.34,32.12-11.51,0-22.39-1.16-32.09-3.23"></path>
    <path class="cls-funding1" d="m387.92,117.62c0,17.74-32.84,32.12-73.34,32.12-11.51,0-22.39-1.16-32.09-3.23"></path>
    <path class="cls-funding1" d="m282.49,183.22c9.69,2.07,20.58,3.23,32.09,3.23,40.51,0,73.34-14.38,73.34-32.12V44.21"></path>
    <g id="lMpsVO">
      <path class="cls-funding2" d="m162.84,265.27c-2.23-1.68-10.24-7.03-12.43-8.65-47.79-31.3-37.51-24.11-59.51-38.92-16.18-10.86-23.52-11.21-40.66-10.64-15.08.5-27.96,6.62-39.07,16.3-7.61,6.63-7.23,17.89.51,25.15,22.14,19.87,31.32,27.43,50.28,44.24,37.24,33.25,62.3,55.42,98.78,86,6.47,6.03,14.02,8.6,22.87,8.59,51.96-.1,103.92.12,155.88-.15,14.93-.08,23.12,2.25,36.93,14.1,12.6,13.89,7.44,7.59,20.38,21.17,3.16,3.31,4.73,5.2,7.86,3.46,4.39-2.45,4.81-7.67.83-11.88-9.85-10.41-.78,1.34-10.66-9.04-3.68-3.87-9.1-11.64-12.71-15.57-11.53-12.53-23.01-16.3-40.08-16.3-52.49.02-104.97-.06-157.45.1-6.23.02-11-1.92-15.48-6.1-48.63-45.35-97.8-82.54-146.5-127.81-3.4-3.16-3.32-4.56.36-7.35,17.44-13.26,38.29-14.87,56.96-3.07,12.89,8.15,29.59,19.21,45.49,29.67,16.86,10.75,14.34,9.37,30,18.81,2.58-4.2,4.93-8.03,7.43-12.1Zm26.5,14.89c6.09-6.23,13.79-8.83,22.38-8.87,20.08-.08,40.16.05,60.23-.13,2.56-.02,5.7-.73,7.56-2.29,39.12-32.61,98.44-30.6,136.75,6.8,22.95,22.4,18.41,17.85,41.68,39.93,17.37,17.79,17.95,2.06,12.93-2.7-23.84-22.6-22.54-26.45-46.48-48.95-42.25-39.71-104.42-43.07-150.93-8.39-1.31.98-3.29,1.53-4.97,1.54-17.71.11-35.43.1-53.15.06-28.39-.05-47.32,16.22-51.19,44.08-.32,2.31-.68,4.62-.76,6.94-.32,8.46,5.33,14.33,13.92,14.39,12.07.08,24.15.02,36.22.02,27.69,0,55.38,0,83.07,0,.92,0,1.84.05,2.75-.03,3.74-.35,6.35-2.99,6.53-6.56.19-3.71-2.34-6.83-6.11-7.37-1.29-.18-2.62-.09-3.93-.09-37.66,0-75.32,0-112.98,0h-5.18c1.25-10.94,4.09-20.63,11.66-28.38Z"></path>
    </g>
    <path class="cls-funding3" d="m494.49,364.81l-68.04-71.41,16.14-18.68,56.91,59.73c.32,1.16,3.19,12.74-5,30.36Z"></path>
    <path class="cls-funding3" d="m414.01,450.94l-68.04-71.41,33.9-.03,39.15,41.09c.32,1.16,3.19,12.74-5,30.36Z"></path>
    <path class="cls-funding3" d="m327.4,327.85h-98.86s-2.5-24.51-2.5-24.51h82.69c1.07.57,11.48,6.46,18.68,24.51Z"></path>
  </g>
</svg>