<svg version="1.1" xmlns="http://www.w3.org/2000/svg" xmlns:xlink="http://www.w3.org/1999/xlink" x="0px" y="0px"
	 viewBox="0 0 1792 1792" style="enable-background:new 0 0 1792 1792;" xml:space="preserve">
<style type="text/css">
	.st0{display:none;}
	.st1{display:inline;fill:#EF4A3B;}
	.st2{display:none;fill:#FFFFFF;stroke:#00D00B;stroke-miterlimit:10;}
	.st3{fill:none;stroke:#000000;stroke-width:100;stroke-miterlimit:10;}
</style>
<g id="g3039" transform="matrix(1,0,0,-1,121.49153,1277.8305)" class="st0">
	<path id="path3041" class="st1" d="M1536,1024V576c0-17.3-6.3-32.3-19-45s-27.7-19-45-19h-448c-28,0-47.7,13.3-59,40
		c-11.3,26-6.7,49,14,69l138,138c-98.7,91.3-215,137-349,137c-69.3,0-135.5-13.5-198.5-40.5S452,792,406,746
		s-82.5-100.5-109.5-163.5S256,453.3,256,384s13.5-135.5,40.5-198.5S360,68,406,22S506.5-60.5,569.5-87.5S698.7-128,768-128
		c112.7,0,214,33.2,304,99.5S1223.7,125,1257,233c4.7,15.3,14.7,23,30,23h199c10.7,0,19-4,25-12c6.7-8.7,9-17.7,7-27
		c-26-116.7-75.2-220.7-147.5-312s-161-162.3-266-213S887.3-384,768-384c-104,0-203.3,20.3-298,61s-176.3,95.3-245,164
		S101.7-8.7,61,86S0,280,0,384s20.3,203.3,61,298s95.3,176.3,164,245s150.3,123.3,245,164s194,61,298,61c98,0,192.8-18.5,284.5-55.5
		s173.2-89.2,244.5-156.5l130,129c19.3,20.7,42.7,25.3,70,14C1523,1071.7,1536,1052,1536,1024z"/>
</g>
<path class="st2" d="M114.3,125.8"/>
<polyline class="st3" points="648.6,473.6 135.3,473.6 135.3,1661.8 1367.7,1661.8 1367.7,1170.8 "/>
<polyline class="st3" points="751.5,1067.7 1685.6,212.7 1681.5,809.3 "/>
<line class="st3" x1="1736.3" y1="149.8" x2="986.8" y2="149.8"/>
</svg>
