<svg width="41" height="43" viewBox="0 0 41 43" fill="none" xmlns="http://www.w3.org/2000/svg">
<path fill-rule="evenodd" clip-rule="evenodd" d="M17.625 34.375C26.8757 34.375 34.375 26.8758 34.375 17.625C34.375 8.37423 26.8757 0.875 17.625 0.875C8.37427 0.875 0.875 8.37423 0.875 17.625C0.875 26.8758 8.37427 34.375 17.625 34.375ZM17.625 30C24.4595 30 30 24.4595 30 17.625C30 10.7905 24.4595 5.25 17.625 5.25C10.7905 5.25 5.25 10.7905 5.25 17.625C5.25 24.4595 10.7905 30 17.625 30Z" fill="white"/>
<path d="M26.75 27.875C27.6164 27.0085 29.0213 27.0085 29.8877 27.875L40.3137 38.301C41.1802 39.1674 41.1802 40.5723 40.3137 41.4388C39.4472 42.3052 38.0424 42.3052 37.1759 41.4388L26.75 31.0128C25.8835 30.1463 25.8835 28.7415 26.75 27.875Z" fill="white"/>
</svg>
