<svg width="51" height="48" viewBox="0 0 51 48" fill="none" xmlns="http://www.w3.org/2000/svg">
<path fill="#144196" d="M26.9462 26.2817C28.2064 25.0216 28.2064 22.9784 26.9462 21.7183L6.41089 1.18294C5.15074 -0.0772089 3.10763 -0.0772091 1.84748 1.18294C0.58733 2.44309 0.58733 4.4862 1.84748 5.74635L20.1011 24L1.84748 42.2536C0.587326 43.5138 0.587326 45.5569 1.84748 46.8171C3.10763 48.0772 5.15074 48.0772 6.41089 46.8171L26.9462 26.2817ZM20.875 27.2268L24.6645 27.2268L24.6645 20.7732L20.875 20.7732L20.875 27.2268Z"/>
<path fill="#144196" d="M24.1209 26.2817C22.8607 25.0216 22.8607 22.9784 24.1209 21.7183L44.6562 1.18294C45.9164 -0.0772085 47.9595 -0.0772087 49.2197 1.18294C50.4798 2.44309 50.4798 4.4862 49.2197 5.74635L30.966 24L49.2197 42.2536C50.4798 43.5138 50.4798 45.5569 49.2197 46.8171C47.9595 48.0772 45.9164 48.0772 44.6562 46.8171L24.1209 26.2817ZM30.1921 27.2268L26.4026 27.2268L26.4026 20.7732L30.1921 20.7732L30.1921 27.2268Z"/>
</svg>
