<svg width="81" height="64" viewBox="0 0 81 64" fill="none" xmlns="http://www.w3.org/2000/svg">
<path d="M6.85987 9.64399C12.5303 3.68674 21.1108 0.666992 32.3587 0.666992H36.4004V11.7081L33.1509 12.3387C27.6138 13.4118 23.7621 15.5229 21.7009 18.621C20.6254 20.29 20.0154 22.201 19.9306 24.167H32.3587C33.4307 24.167 34.4587 24.5796 35.2166 25.3142C35.9746 26.0487 36.4004 27.0449 36.4004 28.0837V55.5003C36.4004 59.8204 32.775 63.3337 28.3171 63.3337H4.06708C2.99516 63.3337 1.96715 62.921 1.20919 62.1865C0.45123 61.452 0.0254133 60.4558 0.0254133 59.417V39.8337L0.0375384 28.4009C0.0011634 27.9662 -0.766753 17.6653 6.85987 9.64399ZM72.7754 63.3337H48.5254C47.4535 63.3337 46.4255 62.921 45.6675 62.1865C44.9096 61.452 44.4837 60.4558 44.4837 59.417V39.8337L44.4959 28.4009C44.4595 27.9662 43.6916 17.6653 51.3182 9.64399C56.9887 3.68674 65.5691 0.666992 76.8171 0.666992H80.8587V11.7081L77.6092 12.3387C72.0722 13.4118 68.2205 15.5229 66.1592 18.621C65.0837 20.29 64.4737 22.201 64.3889 24.167H76.8171C77.889 24.167 78.917 24.5796 79.675 25.3142C80.4329 26.0487 80.8587 27.0449 80.8587 28.0837V55.5003C80.8587 59.8204 77.2334 63.3337 72.7754 63.3337Z" fill="#144196"/>
</svg>
