<svg width="31" height="26" viewBox="0 0 31 26" fill="none" xmlns="http://www.w3.org/2000/svg">
<path d="M0.8819 6.18367C2.47291 7.4317 3.46905 8.2131 10.8656 13.5812C11.0337 13.7038 11.2296 13.8553 11.4458 14.0225C12.5169 14.851 14.0853 16.064 15.2343 16.0467C16.3824 16.0647 17.9525 14.8504 19.0233 14.0222C19.2394 13.8551 19.4352 13.7037 19.6031 13.5813C27.0004 8.21257 27.9947 7.43259 29.587 6.18354C29.8533 5.97466 30.1362 5.75268 30.4687 5.49392V3.09765C30.4687 1.83558 29.4456 0.8125 28.1835 0.8125H2.28515C1.02308 0.8125 0 1.83558 0 3.09765V5.49392C0.33252 5.75272 0.615546 5.97473 0.8819 6.18367Z" fill="#394851"/>
<path d="M30.4687 22.9023V9.36039C29.1397 10.388 27.2957 11.763 21.3964 16.0444C21.209 16.1811 21.001 16.3418 20.7746 16.5167C19.4268 17.5583 17.4259 19.1045 15.2341 19.0936C13.053 19.1046 11.0754 17.5804 9.70576 16.5247C9.47779 16.349 9.26666 16.1863 9.07424 16.0458C3.17341 11.7632 1.32901 10.3881 0 9.36039V22.9023C0 24.1644 1.02308 25.1875 2.28515 25.1875H28.1835C29.4456 25.1875 30.4687 24.1644 30.4687 22.9023Z" fill="#394851"/>
</svg>
