<svg xmlns="http://www.w3.org/2000/svg" viewBox="0 0 350 400">
    <g>
        <path fill="#ef4a3b" d="m300.3,349.77c1.84-1.03,11.84-7.31,18.8-25H73.77v25h226.53Z"/>
        <path fill="#ef4a3b" d="m25,60.71c0-11.47,2.26-20.79,6.54-26.97,4.13-5.96,10-8.74,18.46-8.74v250.52c-9.22,1.65-17.72,5.38-25,10.69V60.71h0Zm35.71,314.29c-18.69,0-35.71-18.94-35.71-39.74,0-16.17,10.8-29.85,25.57-34.23l274.47-1.48c13.52-.02,24.51-11.02,24.51-24.55V24.55C349.55,11.01,338.54,0,325,0L100,.06c-.12.06-11.37,5.69-19,24.94h243.55v249.55l-249.55,1.34V25h0V0h-25C19.16,0,0,23.26,0,60.71v278.59h.15c.96,14.64,7.09,29.17,17.16,40.41,11.73,13.09,27.14,20.29,43.4,20.29h289.29v-25H60.71Z"/>
    </g>
</svg>