<svg width="72" height="59" viewBox="0 0 72 59" fill="none" xmlns="http://www.w3.org/2000/svg">
<path d="M71.0375 7.77021C68.4573 8.88407 65.6495 9.68572 62.7573 9.99794C65.76 8.21268 68.0086 5.39226 69.0813 2.06585C66.2636 3.74331 63.1768 4.91958 59.9579 5.54247C58.6125 4.1031 56.9854 2.95644 55.1778 2.17393C53.3703 1.39141 51.4211 0.989822 49.4517 0.994176C41.4835 0.994176 35.0752 7.45799 35.0752 15.3901C35.0752 16.5039 35.2101 17.6178 35.4294 18.6895C23.4982 18.065 12.857 12.3607 5.78264 3.62695C4.49361 5.83035 3.81811 8.33917 3.82642 10.8924C3.82642 15.8879 6.36444 20.2928 10.2347 22.8834C7.9539 22.7935 5.7265 22.1661 3.73367 21.0522V21.2294C3.73367 28.2249 8.6748 34.0221 15.2601 35.3553C14.0237 35.6767 12.7517 35.8412 11.4742 35.8447C10.5383 35.8447 9.6529 35.7519 8.75911 35.6253C10.5804 41.3297 15.8841 45.473 22.1996 45.608C17.2585 49.4812 11.0695 51.7596 4.34921 51.7596C3.14344 51.7596 2.03042 51.7174 0.875244 51.5823C7.2498 55.675 14.8133 58.0377 22.9585 58.0377C49.4011 58.0377 63.8703 36.1148 63.8703 17.0862C63.8703 16.4618 63.8703 15.8373 63.8282 15.2129C66.6276 13.1623 69.0813 10.6224 71.0375 7.77021Z" fill="white"/>
</svg>
