<svg width="58" height="58" viewBox="0 0 58 58" fill="none" xmlns="http://www.w3.org/2000/svg">
<path d="M29.0557 0.988281C22.4486 1.03328 16.0623 3.37265 10.9895 7.60621C5.91666 11.8398 2.47246 17.7044 1.2461 24.1969C0.0197341 30.6895 1.08741 37.4064 4.26648 43.1986C7.44555 48.9909 12.5385 53.4985 18.674 55.9505C18.2616 53.252 18.2616 50.5064 18.674 47.8079L22.0328 33.5585C21.5012 32.268 21.238 30.8827 21.2592 29.4872C21.2592 25.5381 23.5595 22.566 26.4094 22.566C26.9257 22.5583 27.4375 22.6622 27.9099 22.8707C28.3823 23.0792 28.804 23.3873 29.1462 23.774C29.4884 24.1606 29.743 24.6167 29.8925 25.1109C30.042 25.6051 30.083 26.1258 30.0125 26.6373C30.0125 29.0801 28.4654 32.7442 27.6511 36.1234C27.4759 36.7536 27.4551 37.4167 27.5904 38.0566C27.7257 38.6966 28.0133 39.2945 28.4287 39.7997C28.8441 40.305 29.3751 40.7027 29.9768 40.9593C30.5785 41.2158 31.2331 41.3236 31.8853 41.2735C36.9336 41.2735 40.8421 35.9198 40.8421 28.2251C40.8928 26.6615 40.6171 25.1045 40.0325 23.6534C39.448 22.2023 38.5673 20.8889 37.4468 19.7972C36.3264 18.7054 34.9906 17.8592 33.5248 17.3125C32.059 16.7658 30.4954 16.5306 28.9336 16.622C27.2662 16.5504 25.6016 16.8178 24.0406 17.4082C22.4795 17.9985 21.0545 18.8995 19.8518 20.0566C18.6491 21.2136 17.6936 22.6027 17.0433 24.1397C16.393 25.6767 16.0613 27.3297 16.0684 28.9986C16.0457 31.3236 16.7582 33.5963 18.104 35.4923C18.2019 35.6011 18.2716 35.7322 18.3071 35.8741C18.3426 36.0161 18.3427 36.1646 18.3076 36.3066C18.0837 37.2023 17.5951 39.1565 17.5137 39.5432C17.4323 39.93 17.0862 40.1743 16.5569 39.93C12.9946 38.2608 10.7757 33.0699 10.7757 28.8765C10.7757 19.8993 17.3101 11.6347 29.6054 11.6347C39.4782 11.6347 47.1729 18.678 47.1729 28.103C47.1729 37.9147 41.066 45.813 32.3738 45.813C31.0995 45.8573 29.8344 45.5826 28.6932 45.0138C27.5521 44.445 26.5711 43.6002 25.8394 42.556L24.0684 49.3347C23.2195 51.9691 22.0286 54.4807 20.5264 56.8054C23.2944 57.6235 26.1696 58.0215 29.0557 57.9861C36.6141 57.9861 43.8629 54.9836 49.2075 49.639C54.5521 44.2944 57.5546 37.0456 57.5546 29.4872C57.5546 21.9288 54.5521 14.68 49.2075 9.33542C43.8629 3.99084 36.6141 0.988281 29.0557 0.988281Z" fill="white"/>
</svg>
