<svg width="82" height="58" viewBox="0 0 82 58" fill="none" xmlns="http://www.w3.org/2000/svg">
<path d="M79.946 9.94998C79.4826 8.23088 78.5771 6.6631 77.3196 5.40271C76.062 4.14231 74.4963 3.23325 72.7783 2.766C66.4079 1.01679 40.9222 0.988312 40.9222 0.988312C40.9222 0.988312 15.4407 0.959836 9.06623 2.63176C7.34925 3.12051 5.78674 4.04243 4.52871 5.30901C3.27068 6.57559 2.35936 8.14431 1.88225 9.86455C0.202191 16.2349 0.185919 29.4476 0.185919 29.4476C0.185919 29.4476 0.169647 42.7254 1.8375 49.0307C2.77313 52.5169 5.51899 55.2709 9.00928 56.2106C15.4448 57.9598 40.8612 57.9883 40.8612 57.9883C40.8612 57.9883 66.3469 58.0167 72.7173 56.3489C74.4359 55.8824 76.0031 54.9755 77.2638 53.7177C78.5245 52.4598 79.435 50.8947 79.9053 49.1771C81.5894 42.8108 81.6016 29.6022 81.6016 29.6022C81.6016 29.6022 81.683 16.3204 79.946 9.94998ZM32.7701 41.688L32.7904 17.2804L53.9722 29.5046L32.7701 41.688Z" fill="white"/>
</svg>
