<svg width="33" height="36" viewBox="0 0 33 36" fill="none" xmlns="http://www.w3.org/2000/svg">
<path d="M7.54163 16.7084H11.125V20.2917H7.54163V16.7084ZM7.54163 23.875H11.125V27.4584H7.54163V23.875ZM14.7083 16.7084H18.2916V20.2917H14.7083V16.7084ZM14.7083 23.875H18.2916V27.4584H14.7083V23.875ZM21.875 16.7084H25.4583V20.2917H21.875V16.7084ZM21.875 23.875H25.4583V27.4584H21.875V23.875Z" fill="#394851"/>
<path d="M3.95833 35.25H29.0417C31.0179 35.25 32.625 33.6952 32.625 31.7833V7.5167C32.625 5.60483 31.0179 4.05004 29.0417 4.05004H25.4583V0.583374H21.875V4.05004H11.125V0.583374H7.54167V4.05004H3.95833C1.98212 4.05004 0.375 5.60483 0.375 7.5167V31.7833C0.375 33.6952 1.98212 35.25 3.95833 35.25ZM29.0417 10.9834L29.0435 31.7833H3.95833V10.9834H29.0417Z" fill="#394851"/>
</svg>
