<svg id="Layer_2" data-name="Layer 2" xmlns="http://www.w3.org/2000/svg" viewBox="0 0 500.24 500.95">
  <defs>
    <style>
      .cls-bike {
        fill: none;
        stroke-width: 25.11px;
      }

      .cls-bike, .cls-bike2 {
        stroke: #170f39;
        stroke-miterlimit: 10;
      }

      .cls-bike2 {
        stroke-width: 11.34px;
      }

      .cls-bike2, .cls-bike3 {
        fill: #170f39;
      }

      .cls-bike3 {
        stroke-width: 0px;
      }
    </style>
  </defs>
  <g id="Layer_15" data-name="Layer 15">
    <g id="lMpsVO">
      <path class="cls-bike2" d="m162.84,315.28c-2.23-1.68-10.24-7.03-12.43-8.65-47.79-31.3-37.51-24.11-59.51-38.92-16.18-10.86-23.52-11.21-40.66-10.64-15.08.5-27.96,6.62-39.07,16.3-7.61,6.63-7.23,17.89.51,25.15,22.14,19.87,31.32,27.43,50.28,44.24,37.24,33.25,62.3,55.42,98.78,86,6.47,6.03,14.02,8.6,22.87,8.59,51.96-.1,103.92.12,155.88-.15,14.93-.08,23.12,2.25,36.93,14.1,12.6,13.89,7.44,7.59,20.38,21.17,3.16,3.31,4.73,5.2,7.86,3.46,4.39-2.45,4.81-7.67.83-11.88-9.85-10.41-.78,1.34-10.66-9.04-3.68-3.87-9.1-11.64-12.71-15.57-11.53-12.53-23.01-16.3-40.08-16.3-52.49.02-104.97-.06-157.45.1-6.23.02-11-1.92-15.48-6.1-48.63-45.35-97.8-82.54-146.5-127.81-3.4-3.16-3.32-4.56.36-7.35,17.44-13.26,38.29-14.87,56.96-3.07,12.89,8.15,29.59,19.21,45.49,29.67,16.86,10.75,14.34,9.37,30,18.81,2.58-4.2,4.93-8.03,7.43-12.1Zm26.5,14.89c6.09-6.23,13.79-8.83,22.38-8.87,20.08-.08,40.16.05,60.23-.13,2.56-.02,5.7-.73,7.56-2.29,39.12-32.61,98.44-30.6,136.75,6.8,22.95,22.4,18.41,17.85,41.68,39.93,17.37,17.79,17.95,2.06,12.93-2.7-23.84-22.6-22.54-26.45-46.48-48.95-42.25-39.71-104.42-44.07-150.93-9.39-1.31.98-3.29,1.53-4.97,1.54-17.71.11-35.43.1-53.15.06-28.39-.05-47.32,17.22-51.19,45.08-.32,2.31-.68,4.62-.76,6.94-.32,8.46,5.33,14.33,13.92,14.39,12.07.08,24.15.02,36.22.02,27.69,0,55.38,0,83.07,0,.92,0,1.84.05,2.75-.03,3.74-.35,6.35-2.99,6.53-6.56.19-3.71-2.34-6.83-6.11-7.37-1.29-.18-2.62-.09-3.93-.09-37.66,0-75.32,0-112.98,0h-5.18c1.25-10.94,4.09-20.63,11.66-28.38Z"></path>
    </g>
    <path class="cls-bike3" d="m494.49,414.82l-68.04-71.41,16.14-18.68,56.91,59.73c.32,1.16,3.19,12.74-5,30.36Z"></path>
    <path class="cls-bike3" d="m414.01,500.95l-68.04-71.41,33.9-.03,39.15,41.09c.32,1.16,3.19,12.74-5,30.36Z"></path>
    <path class="cls-bike3" d="m327.4,377.86h-98.86s-2.5-24.51-2.5-24.51h82.69c1.07.57,11.48,6.46,18.68,24.51Z"></path>
    <polygon class="cls-bike3" points="218.59 195.92 190.91 261.68 218.86 261.68 218.86 294.19 240.61 294.19 240.61 239.93 221.57 239.93 240.33 195.92 218.59 195.92"></polygon>
    <path class="cls-bike3" d="m315.8,189.03v-50.82c0-13.66-6.39-26.63-17.98-36.53-10.66-9.09-24.48-14.31-37.92-14.31h-18.63c-13.44,0-27.26,5.22-37.92,14.31-11.59,9.9-17.98,22.87-17.98,36.53v57.31c.55,1.02,5.79,10.12,21.66,16.42v-73.72c0-13.49,14.96-29.18,34.24-29.18h18.63c19.28,0,34.24,15.69,34.24,29.18v50.82"></path>
    <path class="cls-bike3" d="m250.69,87.37c18.02,0,32.67-14.66,32.67-32.67s-14.66-32.67-32.67-32.67-32.67,14.66-32.67,32.67,14.66,32.67,32.67,32.67Zm0-47.45c8.15,0,14.77,6.63,14.77,14.77s-6.63,14.77-14.77,14.77-14.77-6.63-14.77-14.77,6.63-14.77,14.77-14.77Z"></path>
    <path class="cls-bike3" d="m294.14,212.4v-60.14s21.66,0,21.66,0v43.7c-.5.94-5.71,10.1-21.66,16.43Z"></path>
    <polygon class="cls-bike3" points="284.1 195.66 311.77 261.42 283.82 261.42 283.82 294.19 262.08 294.19 262.07 239.67 281.11 239.67 262.07 195.92 284.1 195.66"></polygon>
    <path class="cls-bike3" d="m193.99,104.06c4.09-4.45,8.53-7.27,8.48-7.36-3.05-6.22-7.55-11.96-13.37-16.93-10.66-9.09-24.48-14.31-37.92-14.31h-18.63c-13.44,0-27.26,5.22-37.92,14.31-11.59,9.9-17.98,22.87-17.98,36.53v57.48c.55,1.02,5.79,10.12,21.66,16.42v-73.89c0-13.49,14.96-29.18,34.24-29.18h18.63c19.28,0,34.24,15.69,34.24,29.18,0,0,2.39-5.26,8.32-11.96"></path>
    <path class="cls-bike3" d="m140.74,65.5c18.02,0,32.67-14.66,32.67-32.67S158.76.15,140.74.15s-32.67,14.66-32.67,32.67,14.66,32.67,32.67,32.67Zm0-47.45c8.15,0,14.77,6.63,14.77,14.77s-6.63,14.77-14.77,14.77-14.77-6.63-14.77-14.77,6.63-14.77,14.77-14.77Z"></path>
    <line class="cls-bike" x1="120.12" y1="175.95" x2="120.12" y2="288.45"></line>
    <line class="cls-bike" x1="163.61" y1="175.95" x2="163.61" y2="288.45"></line>
    <path class="cls-bike3" d="m307.21,103.91c-4.09-4.45-8.53-7.27-8.48-7.36,3.05-6.22,7.55-11.96,13.37-16.93,10.66-9.09,24.48-14.31,37.92-14.31h18.63c13.44,0,27.26,5.22,37.92,14.31,11.59,9.9,17.98,22.87,17.98,36.53v57.48c-.55,1.02-5.79,10.12-21.66,16.42v-73.89c0-13.49-14.96-29.18-34.24-29.18h-18.63c-19.28,0-34.24,15.69-34.24,29.18,0,0-2.39-5.26-8.32-11.96"></path>
    <path class="cls-bike3" d="m393.13,32.67c0-18.02-14.66-32.67-32.67-32.67-18.02,0-32.67,14.66-32.67,32.67,0,18.02,14.66,32.67,32.67,32.67,18.02,0,32.67-14.66,32.67-32.67Zm-17.9,0c0,8.15-6.63,14.77-14.77,14.77-8.15,0-14.77-6.63-14.77-14.77,0-8.15,6.63-14.77,14.77-14.77s14.77,6.63,14.77,14.77Z"></path>
    <line class="cls-bike" x1="381.08" y1="175.95" x2="381.08" y2="288.32"></line>
    <line class="cls-bike" x1="337.59" y1="175.95" x2="337.59" y2="288.32"></line>
  </g>
</svg>