<svg width="52" height="52" viewBox="0 0 52 52" fill="none" xmlns="http://www.w3.org/2000/svg">
<g clip-path="url(#clip0_334_228)">
<path d="M21 41C32.0457 41 41 32.0457 41 21C41 9.9543 32.0457 1 21 1C9.9543 1 1 9.9543 1 21C1 32.0457 9.9543 41 21 41Z" stroke="white" stroke-width="2" stroke-linejoin="round"/>
<path d="M31.8096 37.8101L43.7577 49.7582C44.1514 50.1519 44.6188 50.4642 45.1332 50.6773C45.6477 50.8904 46.199 51 46.7558 51C47.3126 51 47.864 50.8904 48.3784 50.6773C48.8928 50.4642 49.3602 50.1519 49.754 49.7582L49.7577 49.7545C50.1514 49.3607 50.4637 48.8933 50.6768 48.3789C50.8899 47.8645 50.9996 47.3131 50.9996 46.7563C50.9996 46.1995 50.8899 45.6481 50.6768 45.1337C50.4637 44.6193 50.1514 44.1519 49.7577 43.7582L37.8096 31.8101" stroke="white" stroke-width="2" stroke-linecap="round" stroke-linejoin="round"/>
<path d="M28 21H32M32 21C32.5304 21 33.0391 20.7893 33.4142 20.4142C33.7893 20.0391 34 19.5304 34 19C34 18.4696 33.7893 17.9609 33.4142 17.5858C33.0391 17.2107 32.5304 17 32 17H28V25H32C32.5304 25 33.0391 24.7893 33.4142 24.4142C33.7893 24.0391 34 23.5304 34 23C34 22.4696 33.7893 21.9609 33.4142 21.5858C33.0391 21.2107 32.5304 21 32 21Z" stroke="white" stroke-width="2" stroke-linecap="round" stroke-linejoin="round"/>
<path d="M8 25H11C11.7956 25 12.5587 24.6839 13.1213 24.1213C13.6839 23.5587 14 22.7956 14 22V17H10" stroke="white" stroke-width="2" stroke-linecap="round" stroke-linejoin="round"/>
<path d="M22 17H20C18.8954 17 18 17.8954 18 19V23C18 24.1046 18.8954 25 20 25H22C23.1046 25 24 24.1046 24 23V19C24 17.8954 23.1046 17 22 17Z" stroke="white" stroke-width="2" stroke-linecap="round" stroke-linejoin="round"/>
</g>
<defs>
<clipPath id="clip0_334_228">
<rect width="51.9999" height="52" fill="white"/>
</clipPath>
</defs>
</svg>
