<svg width="48" height="48" viewBox="0 0 48 48" fill="none" xmlns="http://www.w3.org/2000/svg">
<g clip-path="url(#clip0_334_212)">
<path d="M38.3113 6.00148C37.8052 5.98495 37.3076 6.13445 36.8944 6.42718C36.5487 6.75663 36.3351 7.20088 36.2935 7.67662C36.252 8.15236 36.3854 8.62691 36.6688 9.01128C37.2646 9.75988 38.3651 9.41858 38.72 10.2C38.7858 10.3444 38.8198 10.5013 38.8198 10.66C38.8198 10.8187 38.7858 10.9755 38.72 11.12C38.3619 11.8246 37.2388 11.5466 36.7371 12.3313C36.5886 12.574 36.5176 12.8563 36.5338 13.1404C36.5759 14.0156 37.7357 14.5555 37.7018 15.4311C37.6798 16.0022 37.1566 16.4056 36.6904 16.7364C35.1533 17.827 35.2028 19.9118 35.1155 20.7136C35.0008 21.768 34.7714 23.8765 35.96 24.92C37.5347 26.3024 40.0369 24.445 41.48 25.84C42.27 26.6037 41.8922 27.52 42.4 29.52C42.8315 31.1685 43.6208 32.7017 44.7118 34.0106C46.9821 29.3086 47.5853 23.9742 46.4222 18.884C45.2591 13.7939 42.3984 9.2508 38.3113 6.00148Z" stroke="black" stroke-width="2" stroke-linecap="round" stroke-linejoin="round"/>
<path d="M24 47C36.7025 47 47 36.7025 47 24C47 11.2975 36.7025 1 24 1C11.2975 1 1 11.2975 1 24C1 36.7025 11.2975 47 24 47Z" stroke="black" stroke-width="2" stroke-linecap="round" stroke-linejoin="round"/>
<path d="M30.9999 36C31.4757 35.1944 32.9352 32.7109 31.9999 31C31.9188 30.8453 31.8127 30.705 31.6859 30.5848C30.6231 29.7331 29.3492 29.1854 27.9999 29C24.8953 28.1976 25.0505 26.4606 21.9999 26C20.3643 25.753 20.4352 26.2989 18.9999 26C16.3499 25.4482 13.991 24.1466 13.7233 21.7723C13.6346 21.1672 13.731 20.5494 13.9999 20C14.2419 19.5206 14.6226 19.1252 15.0925 18.8651C15.5624 18.6051 16.0997 18.4926 16.6344 18.5422C18.0401 18.6967 18.6723 20.0905 19.4214 21.1168C19.7952 21.1009 20.027 20.6687 20.0028 20.2952C19.937 19.9268 19.8234 19.5685 19.6648 19.2295C19.6138 18.8719 19.6481 18.5073 19.7648 18.1654C20.1266 17.0893 21.4777 17.2522 22.3191 16.278C23.1909 15.268 22.3603 14.3754 23.0002 13C23.9639 10.9288 26.5402 11.4665 27.0002 10C27.6331 7.98413 23.6089 4.28163 20.9735 4.61543C20.7037 4.63419 20.4419 4.71455 20.208 4.85033C19.3432 5.63033 20.616 8.14033 18.7428 9.07693C16.512 9.07693 15.3966 5.73073 13.1658 5.73073C13.5552 4.86406 13.9445 3.99719 14.3338 3.13013C10.0255 5.13289 6.44002 8.41602 4.06641 12.5316C4.44552 14.4377 5.09668 16.2793 5.99991 18C6.92531 19.7579 9.17281 24.0277 13.9999 26C15.5894 26.643 17.2854 26.9822 18.9999 27C18.0699 29.6324 18.0699 31.6324 18.9999 33C19.694 34.0206 20.3152 33.948 20.9999 35C21.8875 36.3639 21.0905 37.4025 20.9999 41C20.9062 44.7193 21.6499 45.6448 21.9999 46C22.5499 46.5282 23.2473 46.877 23.9999 47C23.9699 43.3945 25.0227 42.274 25.9999 41C27.6587 38.8372 29.3645 38.7687 30.9999 36Z" stroke="black" stroke-width="2" stroke-linejoin="round"/>
</g>
<defs>
<clipPath id="clip0_334_212">
<rect width="48" height="48" fill="black"/>
</clipPath>
</defs>
</svg>