<svg id="Layer_2" data-name="Layer 2" xmlns="http://www.w3.org/2000/svg" viewBox="0 0 399.56 399.56">
  <defs>
    <style>
      .cls-cogs1 {
        fill: #170d38;
        stroke-width: 0px;
      }
    </style>
  </defs>
  <g id="icons">
    <g>
      <path class="cls-cogs1" d="m135.29,322.01c31.84,0,57.74-25.9,57.74-57.74s-25.9-57.74-57.74-57.74-57.74,25.9-57.74,57.74,25.9,57.74,57.74,57.74Zm0-90.47c18.05,0,32.74,14.69,32.74,32.74s-14.69,32.74-32.74,32.74-32.74-14.69-32.74-32.74,14.69-32.74,32.74-32.74Z"></path>
      <path class="cls-cogs1" d="m251.61,232.38h-11.62c-2.06-6.76-4.79-13.31-8.14-19.58l8.24-8.24c7.39-7.39,7.39-19.42,0-26.82l-18.28-18.28c-7.39-7.39-19.42-7.39-26.82,0l-8.24,8.24c-6.27-3.35-12.82-6.08-19.58-8.14v-11.62c0-10.46-8.51-18.96-18.96-18.96h-25.85c-10.46,0-18.96,8.51-18.96,18.96v11.62c-6.76,2.06-13.32,4.79-19.58,8.14l-8.24-8.24c-7.39-7.39-19.42-7.39-26.82,0l-18.28,18.28c-3.58,3.58-5.55,8.34-5.55,13.41s1.97,9.83,5.55,13.41l8.24,8.24c-3.35,6.27-6.08,12.82-8.14,19.58h-11.62c-9.92,0-18.08,7.67-18.88,17.38.28.55,6.05,11.48,24.92,18.97v-11.35h10.19c8.62,0,16.17-5.9,18.36-14.34,1.95-7.52,4.96-14.76,8.95-21.52,4.43-7.52,3.27-17.04-2.83-23.14l-7.23-7.23,9.74-9.74,7.23,7.23c6.1,6.1,15.62,7.27,23.14,2.83,6.76-3.99,14-7,21.52-8.95,8.44-2.19,14.34-9.74,14.34-18.36v-10.19h13.77v10.19c0,8.62,5.9,16.17,14.34,18.36,7.52,1.95,14.76,4.96,21.52,8.95,7.52,4.43,17.04,3.27,23.14-2.83l7.23-7.23,9.74,9.74-7.23,7.23c-6.1,6.1-7.27,15.62-2.83,23.14,3.99,6.76,7,14,8.95,21.52,2.19,8.44,9.74,14.34,18.36,14.34h10.19v13.77h-10.19c-8.62,0-16.17,5.9-18.36,14.34-1.95,7.52-4.96,14.76-8.95,21.52-4.44,7.52-3.27,17.04,2.83,23.14l7.23,7.23-9.74,9.74-7.23-7.23c-6.1-6.1-15.62-7.27-23.14-2.83-6.76,3.99-14,7-21.52,8.95-8.44,2.19-14.34,9.74-14.34,18.36v10.19h-13.77v-10.19c0-8.62-5.9-16.17-14.34-18.36-7.52-1.95-14.76-4.96-21.52-8.95-7.52-4.43-17.04-3.27-23.14,2.83l-7.23,7.23-9.74-9.74,7.23-7.23c6.1-6.1,7.27-15.62,2.83-23.14-3.99-6.76-7-14-8.95-21.52-1.16-4.47-3.83-8.22-7.37-10.77H0v2.46c0,10.46,8.51,18.96,18.96,18.96h11.62c2.06,6.76,4.79,13.32,8.14,19.58l-8.24,8.24c-3.58,3.58-5.56,8.34-5.56,13.41s1.97,9.83,5.55,13.41l18.28,18.28c3.58,3.58,8.34,5.56,13.41,5.56s9.83-1.97,13.41-5.55l8.24-8.24c6.26,3.35,12.82,6.08,19.58,8.14v11.62c0,10.46,8.51,18.96,18.96,18.96h25.85c10.46,0,18.96-8.51,18.96-18.96v-11.62c6.76-2.06,13.32-4.79,19.58-8.14l8.24,8.24c3.58,3.58,8.34,5.56,13.41,5.56s9.83-1.97,13.41-5.55l18.28-18.28c7.39-7.39,7.39-19.42,0-26.82l-8.24-8.24c3.35-6.26,6.08-12.82,8.14-19.58h11.62c10.46,0,18.96-8.51,18.96-18.96v-25.85c0-10.46-8.51-18.96-18.96-18.96Z"></path>
      <path class="cls-cogs1" d="m265.45,162.18c-1.88,0-3.75-.15-5.58-.46l-3.99,24.14c3.14.52,6.36.78,9.57.78,31.5,0,57.13-25.08,57.13-55.9s-25.63-55.9-57.13-55.9c-28.91,0-52.85,21.12-56.61,48.41,5.12,4.13,12.89,8.71,24.29,11.92-.21-1.46-.34-2.94-.34-4.44,0-17.33,14.65-31.43,32.66-31.43s32.67,14.1,32.67,31.43-14.65,31.43-32.67,31.43Z"></path>
      <path class="cls-cogs1" d="m375.09,129.35v7.88h-10.29c-8.44,0-15.85,5.71-18.03,13.89-1.93,7.22-4.9,14.18-8.84,20.68-4.5,7.42-3.34,16.79,2.83,22.79l6.93,6.74-9.66,9.4-7.42-7.21c-5.95-5.79-15.21-6.91-22.51-2.72l-1.78,1.02c-6.31,3.63-10.48,6.04-16.87,7.65-8.35,2.11-14.18,9.47-14.18,17.9v15.66h24.47v-11.07c6.62-2.13,11.76-4.91,16.94-7.87l8.29,8.06c7.2,7.01,18.93,7.01,26.13,0l18.14-17.64c3.6-3.5,5.58-8.18,5.58-13.18,0-5-1.98-9.68-5.58-13.18l-8-7.78c3.26-5.97,5.92-12.22,7.95-18.66h11.74c10,0,18.16-7.84,18.61-17.64-4.12-4.37-11.66-10.38-24.43-14.71Z"></path>
      <path class="cls-cogs1" d="m380.91,99.8h-11.74c-2.02-6.44-4.68-12.68-7.95-18.66l8-7.78c3.6-3.5,5.58-8.18,5.58-13.18,0-5-1.98-9.68-5.58-13.18l-18.14-17.64c-7.2-7.01-18.93-7.01-26.13,0l-8.35,8.12c-6.29-3.3-12.88-5.97-19.67-7.98v-11.02c0-10.19-8.37-18.47-18.65-18.47h-25.66c-10.28,0-18.65,8.29-18.65,18.47v11.02c-6.79,2.01-13.38,4.69-19.67,7.98l-8.35-8.12c-7.2-7.01-18.93-7.01-26.13,0l-18.14,17.64c-3.6,3.5-5.58,8.18-5.58,13.18,0,5,1.98,9.68,5.58,13.18l8,7.78c-3.26,5.97-5.92,12.22-7.95,18.66h-11.74v24.47h16.11c8.44,0,15.85-5.71,18.03-13.89,1.93-7.22,4.9-14.18,8.84-20.67,4.5-7.42,3.34-16.79-2.83-22.79l-6.93-6.74,9.66-9.4,7.42,7.21c5.95,5.79,15.21,6.91,22.51,2.72,6.74-3.86,13.95-6.78,21.45-8.67,8.35-2.11,14.18-9.47,14.18-17.9v-9.67h14.02v9.67c0,8.43,5.83,15.8,14.18,17.9,7.5,1.89,14.71,4.81,21.45,8.67,7.3,4.19,16.56,3.07,22.51-2.72l7.42-7.21,9.66,9.4-6.93,6.74c-6.17,6-7.33,15.37-2.83,22.79,3.94,6.5,6.92,13.46,8.84,20.67,2.18,8.18,9.6,13.89,18.03,13.89h34.75v-6c0-10.19-8.37-18.47-18.65-18.47Z"></path>
    </g>
  </g>
</svg>