<svg viewBox="0 -269 1792 1792">
    <g  transform="scale(1.5) translate(0 -300)">                                
        <path id="path3017" fill="#FFF" d="M1068,773.2c0-8.1-3.8-15.3-11.5-21.5L520.3,314.7c-7.7-6.3-16.5-9.4-26.5-9.4
c-9.9,0-18.8,3.1-26.5,9.4l-74.1,78.1c-7.7,6.3-11.5,13.4-11.5,21.5c0,8.1,3.8,15.3,11.5,21.5l388,337.8l-412,334.3
c-7.7,6.3-11.5,13.4-11.5,21.5s3.8,15.3,11.5,21.5l98.2,80.7c7.7,6.3,16.5,9.4,26.5,9.4c9.9,0,18.8-3.1,26.5-9.4l536.3-436.9
C1064.2,788.6,1068,781.3,1068,773.2z"></path>
    </g>
</svg>